<mxfile host="app.diagrams.net" modified="2024-02-04T04:17:53.339Z" agent="Mozilla/5.0 (Macintosh; Intel Mac OS X 10_15_7) AppleWebKit/537.36 (KHTML, like Gecko) Chrome/121.0.0.0 Safari/537.36" etag="kLYVO4RUCEFi74zeLNYY" version="23.1.1" type="github">
  <diagram name="Page-1" id="1FZ-kuh0wa5P0Ij3Wnuq">
    <mxGraphModel dx="2840" dy="1277" grid="0" gridSize="15" guides="1" tooltips="1" connect="1" arrows="1" fold="1" page="1" pageScale="1" pageWidth="850" pageHeight="1100" math="0" shadow="0">
      <root>
        <mxCell id="0" />
        <mxCell id="1" parent="0" />
        <mxCell id="mNUhh_pSSpvhbF5x0rVs-1" value="" style="rounded=1;whiteSpace=wrap;html=1;" parent="1" vertex="1">
          <mxGeometry x="277" y="1272" width="1560" height="10" as="geometry" />
        </mxCell>
        <mxCell id="mNUhh_pSSpvhbF5x0rVs-2" value="" style="rounded=1;whiteSpace=wrap;html=1;" parent="1" vertex="1">
          <mxGeometry x="277" y="1212" width="1560" height="10" as="geometry" />
        </mxCell>
        <mxCell id="DsIkFXhPZ1wWTQOzJaBZ-2" value="" style="rounded=1;whiteSpace=wrap;html=1;" parent="1" vertex="1">
          <mxGeometry x="277" y="462" width="1560" height="10" as="geometry" />
        </mxCell>
        <mxCell id="DsIkFXhPZ1wWTQOzJaBZ-3" value="" style="rounded=1;whiteSpace=wrap;html=1;" parent="1" vertex="1">
          <mxGeometry x="277" y="402" width="1560" height="10" as="geometry" />
        </mxCell>
        <mxCell id="DsIkFXhPZ1wWTQOzJaBZ-4" value="~ 0&#39; 8&quot;" style="text;html=1;strokeColor=none;fillColor=none;align=center;verticalAlign=middle;whiteSpace=wrap;rounded=0;fontSize=45;" parent="1" vertex="1">
          <mxGeometry x="67" y="1227" width="180" height="65" as="geometry" />
        </mxCell>
        <mxCell id="DsIkFXhPZ1wWTQOzJaBZ-6" value="~ 20&#39; 0&quot;" style="text;html=1;strokeColor=none;fillColor=none;align=center;verticalAlign=middle;whiteSpace=wrap;rounded=0;fontSize=45;" parent="1" vertex="1">
          <mxGeometry x="67" y="417" width="180" height="65" as="geometry" />
        </mxCell>
        <mxCell id="DsIkFXhPZ1wWTQOzJaBZ-10" value="" style="group" parent="1" vertex="1" connectable="0">
          <mxGeometry x="352" y="1283" width="90" height="105" as="geometry" />
        </mxCell>
        <mxCell id="DsIkFXhPZ1wWTQOzJaBZ-7" value="" style="rounded=1;whiteSpace=wrap;html=1;fillColor=#60a917;fontColor=#ffffff;strokeColor=#2D7600;" parent="DsIkFXhPZ1wWTQOzJaBZ-10" vertex="1">
          <mxGeometry width="90" height="45" as="geometry" />
        </mxCell>
        <mxCell id="DsIkFXhPZ1wWTQOzJaBZ-8" value="3.001&lt;br&gt;23ch" style="text;html=1;strokeColor=none;fillColor=none;align=center;verticalAlign=middle;whiteSpace=wrap;rounded=0;fontSize=23;" parent="DsIkFXhPZ1wWTQOzJaBZ-10" vertex="1">
          <mxGeometry x="15" y="45" width="60" height="60" as="geometry" />
        </mxCell>
        <mxCell id="DsIkFXhPZ1wWTQOzJaBZ-11" value="" style="group" parent="1" vertex="1" connectable="0">
          <mxGeometry x="622" y="1283" width="90" height="105" as="geometry" />
        </mxCell>
        <mxCell id="DsIkFXhPZ1wWTQOzJaBZ-12" value="" style="rounded=1;whiteSpace=wrap;html=1;fillColor=#60a917;fontColor=#ffffff;strokeColor=#2D7600;" parent="DsIkFXhPZ1wWTQOzJaBZ-11" vertex="1">
          <mxGeometry width="90" height="45" as="geometry" />
        </mxCell>
        <mxCell id="DsIkFXhPZ1wWTQOzJaBZ-13" value="3.024&lt;br&gt;23ch" style="text;html=1;strokeColor=none;fillColor=none;align=center;verticalAlign=middle;whiteSpace=wrap;rounded=0;fontSize=23;" parent="DsIkFXhPZ1wWTQOzJaBZ-11" vertex="1">
          <mxGeometry x="15" y="45" width="60" height="60" as="geometry" />
        </mxCell>
        <mxCell id="DsIkFXhPZ1wWTQOzJaBZ-14" value="" style="group" parent="1" vertex="1" connectable="0">
          <mxGeometry x="892" y="1283" width="90" height="105" as="geometry" />
        </mxCell>
        <mxCell id="DsIkFXhPZ1wWTQOzJaBZ-15" value="" style="rounded=1;whiteSpace=wrap;html=1;fillColor=#60a917;fontColor=#ffffff;strokeColor=#2D7600;" parent="DsIkFXhPZ1wWTQOzJaBZ-14" vertex="1">
          <mxGeometry width="90" height="45" as="geometry" />
        </mxCell>
        <mxCell id="DsIkFXhPZ1wWTQOzJaBZ-16" value="3.047&lt;br&gt;23ch" style="text;html=1;strokeColor=none;fillColor=none;align=center;verticalAlign=middle;whiteSpace=wrap;rounded=0;fontSize=23;" parent="DsIkFXhPZ1wWTQOzJaBZ-14" vertex="1">
          <mxGeometry x="15" y="45" width="60" height="60" as="geometry" />
        </mxCell>
        <mxCell id="DsIkFXhPZ1wWTQOzJaBZ-17" value="" style="group" parent="1" vertex="1" connectable="0">
          <mxGeometry x="1162" y="1283" width="90" height="105" as="geometry" />
        </mxCell>
        <mxCell id="DsIkFXhPZ1wWTQOzJaBZ-18" value="" style="rounded=1;whiteSpace=wrap;html=1;fillColor=#60a917;fontColor=#ffffff;strokeColor=#2D7600;" parent="DsIkFXhPZ1wWTQOzJaBZ-17" vertex="1">
          <mxGeometry width="90" height="45" as="geometry" />
        </mxCell>
        <mxCell id="DsIkFXhPZ1wWTQOzJaBZ-19" value="3.070&lt;br&gt;23ch" style="text;html=1;strokeColor=none;fillColor=none;align=center;verticalAlign=middle;whiteSpace=wrap;rounded=0;fontSize=23;" parent="DsIkFXhPZ1wWTQOzJaBZ-17" vertex="1">
          <mxGeometry x="15" y="45" width="60" height="60" as="geometry" />
        </mxCell>
        <mxCell id="DsIkFXhPZ1wWTQOzJaBZ-20" value="" style="group" parent="1" vertex="1" connectable="0">
          <mxGeometry x="1432" y="1283" width="90" height="105" as="geometry" />
        </mxCell>
        <mxCell id="DsIkFXhPZ1wWTQOzJaBZ-21" value="" style="rounded=1;whiteSpace=wrap;html=1;fillColor=#60a917;fontColor=#ffffff;strokeColor=#2D7600;" parent="DsIkFXhPZ1wWTQOzJaBZ-20" vertex="1">
          <mxGeometry width="90" height="45" as="geometry" />
        </mxCell>
        <mxCell id="DsIkFXhPZ1wWTQOzJaBZ-22" value="3.093&lt;br&gt;23ch" style="text;html=1;strokeColor=none;fillColor=none;align=center;verticalAlign=middle;whiteSpace=wrap;rounded=0;fontSize=23;" parent="DsIkFXhPZ1wWTQOzJaBZ-20" vertex="1">
          <mxGeometry x="15" y="45" width="60" height="60" as="geometry" />
        </mxCell>
        <mxCell id="DsIkFXhPZ1wWTQOzJaBZ-23" value="" style="group" parent="1" vertex="1" connectable="0">
          <mxGeometry x="1687" y="1282" width="90" height="105" as="geometry" />
        </mxCell>
        <mxCell id="DsIkFXhPZ1wWTQOzJaBZ-24" value="" style="rounded=1;whiteSpace=wrap;html=1;fillColor=#60a917;fontColor=#ffffff;strokeColor=#2D7600;" parent="DsIkFXhPZ1wWTQOzJaBZ-23" vertex="1">
          <mxGeometry width="90" height="45" as="geometry" />
        </mxCell>
        <mxCell id="DsIkFXhPZ1wWTQOzJaBZ-25" value="3.116&lt;br&gt;23ch" style="text;html=1;strokeColor=none;fillColor=none;align=center;verticalAlign=middle;whiteSpace=wrap;rounded=0;fontSize=23;" parent="DsIkFXhPZ1wWTQOzJaBZ-23" vertex="1">
          <mxGeometry x="15" y="45" width="60" height="60" as="geometry" />
        </mxCell>
        <mxCell id="DsIkFXhPZ1wWTQOzJaBZ-28" value="" style="group" parent="1" vertex="1" connectable="0">
          <mxGeometry x="292" y="1152" width="60" height="115" as="geometry" />
        </mxCell>
        <mxCell id="DsIkFXhPZ1wWTQOzJaBZ-26" value="" style="rounded=1;whiteSpace=wrap;html=1;fillColor=#1ba1e2;fontColor=#ffffff;strokeColor=#006EAF;" parent="DsIkFXhPZ1wWTQOzJaBZ-28" vertex="1">
          <mxGeometry y="70" width="60" height="45" as="geometry" />
        </mxCell>
        <mxCell id="DsIkFXhPZ1wWTQOzJaBZ-27" value="3.139&lt;br&gt;14ch" style="text;html=1;strokeColor=none;fillColor=none;align=center;verticalAlign=middle;whiteSpace=wrap;rounded=0;fontSize=23;" parent="DsIkFXhPZ1wWTQOzJaBZ-28" vertex="1">
          <mxGeometry width="60" height="60" as="geometry" />
        </mxCell>
        <mxCell id="DsIkFXhPZ1wWTQOzJaBZ-29" value="" style="group" parent="1" vertex="1" connectable="0">
          <mxGeometry x="390" y="1152" width="60" height="115" as="geometry" />
        </mxCell>
        <mxCell id="DsIkFXhPZ1wWTQOzJaBZ-30" value="" style="rounded=1;whiteSpace=wrap;html=1;fillColor=#1ba1e2;fontColor=#ffffff;strokeColor=#006EAF;" parent="DsIkFXhPZ1wWTQOzJaBZ-29" vertex="1">
          <mxGeometry y="70" width="60" height="45" as="geometry" />
        </mxCell>
        <mxCell id="DsIkFXhPZ1wWTQOzJaBZ-31" value="3.153&lt;br&gt;14ch" style="text;html=1;strokeColor=none;fillColor=none;align=center;verticalAlign=middle;whiteSpace=wrap;rounded=0;fontSize=23;" parent="DsIkFXhPZ1wWTQOzJaBZ-29" vertex="1">
          <mxGeometry width="60" height="60" as="geometry" />
        </mxCell>
        <mxCell id="DsIkFXhPZ1wWTQOzJaBZ-32" value="" style="group" parent="1" vertex="1" connectable="0">
          <mxGeometry x="488" y="1152" width="60" height="115" as="geometry" />
        </mxCell>
        <mxCell id="DsIkFXhPZ1wWTQOzJaBZ-33" value="" style="rounded=1;whiteSpace=wrap;html=1;fillColor=#1ba1e2;fontColor=#ffffff;strokeColor=#006EAF;" parent="DsIkFXhPZ1wWTQOzJaBZ-32" vertex="1">
          <mxGeometry y="70" width="60" height="45" as="geometry" />
        </mxCell>
        <mxCell id="DsIkFXhPZ1wWTQOzJaBZ-34" value="3.167&lt;br&gt;14ch" style="text;html=1;strokeColor=none;fillColor=none;align=center;verticalAlign=middle;whiteSpace=wrap;rounded=0;fontSize=23;" parent="DsIkFXhPZ1wWTQOzJaBZ-32" vertex="1">
          <mxGeometry width="60" height="60" as="geometry" />
        </mxCell>
        <mxCell id="DsIkFXhPZ1wWTQOzJaBZ-35" value="" style="group" parent="1" vertex="1" connectable="0">
          <mxGeometry x="586" y="1152" width="60" height="115" as="geometry" />
        </mxCell>
        <mxCell id="DsIkFXhPZ1wWTQOzJaBZ-36" value="" style="rounded=1;whiteSpace=wrap;html=1;fillColor=#1ba1e2;fontColor=#ffffff;strokeColor=#006EAF;" parent="DsIkFXhPZ1wWTQOzJaBZ-35" vertex="1">
          <mxGeometry y="70" width="60" height="45" as="geometry" />
        </mxCell>
        <mxCell id="DsIkFXhPZ1wWTQOzJaBZ-37" value="3.181&lt;br&gt;14ch" style="text;html=1;strokeColor=none;fillColor=none;align=center;verticalAlign=middle;whiteSpace=wrap;rounded=0;fontSize=23;" parent="DsIkFXhPZ1wWTQOzJaBZ-35" vertex="1">
          <mxGeometry width="60" height="60" as="geometry" />
        </mxCell>
        <mxCell id="DsIkFXhPZ1wWTQOzJaBZ-38" value="" style="group" parent="1" vertex="1" connectable="0">
          <mxGeometry x="684" y="1152" width="60" height="115" as="geometry" />
        </mxCell>
        <mxCell id="DsIkFXhPZ1wWTQOzJaBZ-39" value="" style="rounded=1;whiteSpace=wrap;html=1;fillColor=#1ba1e2;fontColor=#ffffff;strokeColor=#006EAF;" parent="DsIkFXhPZ1wWTQOzJaBZ-38" vertex="1">
          <mxGeometry y="70" width="60" height="45" as="geometry" />
        </mxCell>
        <mxCell id="DsIkFXhPZ1wWTQOzJaBZ-40" value="3.139&lt;br&gt;14ch" style="text;html=1;strokeColor=none;fillColor=none;align=center;verticalAlign=middle;whiteSpace=wrap;rounded=0;fontSize=23;" parent="DsIkFXhPZ1wWTQOzJaBZ-38" vertex="1">
          <mxGeometry width="60" height="60" as="geometry" />
        </mxCell>
        <mxCell id="DsIkFXhPZ1wWTQOzJaBZ-41" value="" style="group" parent="1" vertex="1" connectable="0">
          <mxGeometry x="782" y="1152" width="60" height="115" as="geometry" />
        </mxCell>
        <mxCell id="DsIkFXhPZ1wWTQOzJaBZ-42" value="" style="rounded=1;whiteSpace=wrap;html=1;fillColor=#1ba1e2;fontColor=#ffffff;strokeColor=#006EAF;" parent="DsIkFXhPZ1wWTQOzJaBZ-41" vertex="1">
          <mxGeometry y="70" width="60" height="45" as="geometry" />
        </mxCell>
        <mxCell id="DsIkFXhPZ1wWTQOzJaBZ-43" value="3.139&lt;br&gt;14ch" style="text;html=1;strokeColor=none;fillColor=none;align=center;verticalAlign=middle;whiteSpace=wrap;rounded=0;fontSize=23;" parent="DsIkFXhPZ1wWTQOzJaBZ-41" vertex="1">
          <mxGeometry width="60" height="60" as="geometry" />
        </mxCell>
        <mxCell id="DsIkFXhPZ1wWTQOzJaBZ-44" value="" style="group" parent="1" vertex="1" connectable="0">
          <mxGeometry x="880" y="1152" width="60" height="115" as="geometry" />
        </mxCell>
        <mxCell id="DsIkFXhPZ1wWTQOzJaBZ-45" value="" style="rounded=1;whiteSpace=wrap;html=1;fillColor=#1ba1e2;fontColor=#ffffff;strokeColor=#006EAF;" parent="DsIkFXhPZ1wWTQOzJaBZ-44" vertex="1">
          <mxGeometry y="70" width="60" height="45" as="geometry" />
        </mxCell>
        <mxCell id="DsIkFXhPZ1wWTQOzJaBZ-46" value="3.139&lt;br&gt;14ch" style="text;html=1;strokeColor=none;fillColor=none;align=center;verticalAlign=middle;whiteSpace=wrap;rounded=0;fontSize=23;" parent="DsIkFXhPZ1wWTQOzJaBZ-44" vertex="1">
          <mxGeometry width="60" height="60" as="geometry" />
        </mxCell>
        <mxCell id="DsIkFXhPZ1wWTQOzJaBZ-47" value="" style="group" parent="1" vertex="1" connectable="0">
          <mxGeometry x="978" y="1152" width="60" height="115" as="geometry" />
        </mxCell>
        <mxCell id="DsIkFXhPZ1wWTQOzJaBZ-48" value="" style="rounded=1;whiteSpace=wrap;html=1;fillColor=#1ba1e2;fontColor=#ffffff;strokeColor=#006EAF;" parent="DsIkFXhPZ1wWTQOzJaBZ-47" vertex="1">
          <mxGeometry y="70" width="60" height="45" as="geometry" />
        </mxCell>
        <mxCell id="DsIkFXhPZ1wWTQOzJaBZ-49" value="3.139&lt;br&gt;14ch" style="text;html=1;strokeColor=none;fillColor=none;align=center;verticalAlign=middle;whiteSpace=wrap;rounded=0;fontSize=23;" parent="DsIkFXhPZ1wWTQOzJaBZ-47" vertex="1">
          <mxGeometry width="60" height="60" as="geometry" />
        </mxCell>
        <mxCell id="DsIkFXhPZ1wWTQOzJaBZ-50" value="" style="group" parent="1" vertex="1" connectable="0">
          <mxGeometry x="1076" y="1152" width="60" height="115" as="geometry" />
        </mxCell>
        <mxCell id="DsIkFXhPZ1wWTQOzJaBZ-51" value="" style="rounded=1;whiteSpace=wrap;html=1;fillColor=#1ba1e2;fontColor=#ffffff;strokeColor=#006EAF;" parent="DsIkFXhPZ1wWTQOzJaBZ-50" vertex="1">
          <mxGeometry y="70" width="60" height="45" as="geometry" />
        </mxCell>
        <mxCell id="DsIkFXhPZ1wWTQOzJaBZ-52" value="3.139&lt;br&gt;14ch" style="text;html=1;strokeColor=none;fillColor=none;align=center;verticalAlign=middle;whiteSpace=wrap;rounded=0;fontSize=23;" parent="DsIkFXhPZ1wWTQOzJaBZ-50" vertex="1">
          <mxGeometry width="60" height="60" as="geometry" />
        </mxCell>
        <mxCell id="DsIkFXhPZ1wWTQOzJaBZ-53" value="" style="group" parent="1" vertex="1" connectable="0">
          <mxGeometry x="1174" y="1152" width="60" height="115" as="geometry" />
        </mxCell>
        <mxCell id="DsIkFXhPZ1wWTQOzJaBZ-54" value="" style="rounded=1;whiteSpace=wrap;html=1;fillColor=#1ba1e2;fontColor=#ffffff;strokeColor=#006EAF;" parent="DsIkFXhPZ1wWTQOzJaBZ-53" vertex="1">
          <mxGeometry y="70" width="60" height="45" as="geometry" />
        </mxCell>
        <mxCell id="DsIkFXhPZ1wWTQOzJaBZ-55" value="3.139&lt;br&gt;14ch" style="text;html=1;strokeColor=none;fillColor=none;align=center;verticalAlign=middle;whiteSpace=wrap;rounded=0;fontSize=23;" parent="DsIkFXhPZ1wWTQOzJaBZ-53" vertex="1">
          <mxGeometry width="60" height="60" as="geometry" />
        </mxCell>
        <mxCell id="DsIkFXhPZ1wWTQOzJaBZ-56" value="" style="group" parent="1" vertex="1" connectable="0">
          <mxGeometry x="1272" y="1152" width="60" height="115" as="geometry" />
        </mxCell>
        <mxCell id="DsIkFXhPZ1wWTQOzJaBZ-57" value="" style="rounded=1;whiteSpace=wrap;html=1;fillColor=#1ba1e2;fontColor=#ffffff;strokeColor=#006EAF;" parent="DsIkFXhPZ1wWTQOzJaBZ-56" vertex="1">
          <mxGeometry y="70" width="60" height="45" as="geometry" />
        </mxCell>
        <mxCell id="DsIkFXhPZ1wWTQOzJaBZ-58" value="3.139&lt;br&gt;14ch" style="text;html=1;strokeColor=none;fillColor=none;align=center;verticalAlign=middle;whiteSpace=wrap;rounded=0;fontSize=23;" parent="DsIkFXhPZ1wWTQOzJaBZ-56" vertex="1">
          <mxGeometry width="60" height="60" as="geometry" />
        </mxCell>
        <mxCell id="DsIkFXhPZ1wWTQOzJaBZ-59" value="" style="group" parent="1" vertex="1" connectable="0">
          <mxGeometry x="1370" y="1152" width="60" height="115" as="geometry" />
        </mxCell>
        <mxCell id="DsIkFXhPZ1wWTQOzJaBZ-60" value="" style="rounded=1;whiteSpace=wrap;html=1;fillColor=#1ba1e2;fontColor=#ffffff;strokeColor=#006EAF;" parent="DsIkFXhPZ1wWTQOzJaBZ-59" vertex="1">
          <mxGeometry y="70" width="60" height="45" as="geometry" />
        </mxCell>
        <mxCell id="DsIkFXhPZ1wWTQOzJaBZ-61" value="3.139&lt;br&gt;14ch" style="text;html=1;strokeColor=none;fillColor=none;align=center;verticalAlign=middle;whiteSpace=wrap;rounded=0;fontSize=23;" parent="DsIkFXhPZ1wWTQOzJaBZ-59" vertex="1">
          <mxGeometry width="60" height="60" as="geometry" />
        </mxCell>
        <mxCell id="DsIkFXhPZ1wWTQOzJaBZ-62" value="" style="group" parent="1" vertex="1" connectable="0">
          <mxGeometry x="1468" y="1152" width="60" height="115" as="geometry" />
        </mxCell>
        <mxCell id="DsIkFXhPZ1wWTQOzJaBZ-63" value="" style="rounded=1;whiteSpace=wrap;html=1;fillColor=#1ba1e2;fontColor=#ffffff;strokeColor=#006EAF;" parent="DsIkFXhPZ1wWTQOzJaBZ-62" vertex="1">
          <mxGeometry y="70" width="60" height="45" as="geometry" />
        </mxCell>
        <mxCell id="DsIkFXhPZ1wWTQOzJaBZ-64" value="3.139&lt;br&gt;14ch" style="text;html=1;strokeColor=none;fillColor=none;align=center;verticalAlign=middle;whiteSpace=wrap;rounded=0;fontSize=23;" parent="DsIkFXhPZ1wWTQOzJaBZ-62" vertex="1">
          <mxGeometry width="60" height="60" as="geometry" />
        </mxCell>
        <mxCell id="DsIkFXhPZ1wWTQOzJaBZ-65" value="" style="group" parent="1" vertex="1" connectable="0">
          <mxGeometry x="1566" y="1152" width="60" height="115" as="geometry" />
        </mxCell>
        <mxCell id="Yz1NdHYIqoeAfp1s1f4n-185" style="edgeStyle=orthogonalEdgeStyle;rounded=0;orthogonalLoop=1;jettySize=auto;html=1;exitX=1;exitY=0.5;exitDx=0;exitDy=0;strokeWidth=3;" edge="1" parent="DsIkFXhPZ1wWTQOzJaBZ-65" source="DsIkFXhPZ1wWTQOzJaBZ-66">
          <mxGeometry relative="1" as="geometry">
            <mxPoint x="94" y="92.66666666666697" as="targetPoint" />
          </mxGeometry>
        </mxCell>
        <mxCell id="DsIkFXhPZ1wWTQOzJaBZ-66" value="&lt;br&gt;" style="rounded=1;whiteSpace=wrap;html=1;fillColor=#1ba1e2;fontColor=#ffffff;strokeColor=#006EAF;" parent="DsIkFXhPZ1wWTQOzJaBZ-65" vertex="1">
          <mxGeometry y="70" width="60" height="45" as="geometry" />
        </mxCell>
        <mxCell id="DsIkFXhPZ1wWTQOzJaBZ-67" value="3.139&lt;br&gt;14ch" style="text;html=1;strokeColor=none;fillColor=none;align=center;verticalAlign=middle;whiteSpace=wrap;rounded=0;fontSize=23;" parent="DsIkFXhPZ1wWTQOzJaBZ-65" vertex="1">
          <mxGeometry width="60" height="60" as="geometry" />
        </mxCell>
        <mxCell id="DsIkFXhPZ1wWTQOzJaBZ-68" value="" style="group" parent="1" vertex="1" connectable="0">
          <mxGeometry x="1664" y="1152" width="60" height="115" as="geometry" />
        </mxCell>
        <mxCell id="DsIkFXhPZ1wWTQOzJaBZ-69" value="" style="rounded=1;whiteSpace=wrap;html=1;fillColor=#1ba1e2;fontColor=#ffffff;strokeColor=#006EAF;" parent="DsIkFXhPZ1wWTQOzJaBZ-68" vertex="1">
          <mxGeometry y="70" width="60" height="45" as="geometry" />
        </mxCell>
        <mxCell id="DsIkFXhPZ1wWTQOzJaBZ-70" value="3.139&lt;br&gt;14ch" style="text;html=1;strokeColor=none;fillColor=none;align=center;verticalAlign=middle;whiteSpace=wrap;rounded=0;fontSize=23;" parent="DsIkFXhPZ1wWTQOzJaBZ-68" vertex="1">
          <mxGeometry width="60" height="60" as="geometry" />
        </mxCell>
        <mxCell id="DsIkFXhPZ1wWTQOzJaBZ-71" value="" style="group" parent="1" vertex="1" connectable="0">
          <mxGeometry x="1762" y="1152" width="60" height="115" as="geometry" />
        </mxCell>
        <mxCell id="DsIkFXhPZ1wWTQOzJaBZ-72" value="" style="rounded=1;whiteSpace=wrap;html=1;fillColor=#1ba1e2;fontColor=#ffffff;strokeColor=#006EAF;" parent="DsIkFXhPZ1wWTQOzJaBZ-71" vertex="1">
          <mxGeometry y="70" width="60" height="45" as="geometry" />
        </mxCell>
        <mxCell id="DsIkFXhPZ1wWTQOzJaBZ-73" value="3.139&lt;br&gt;14ch" style="text;html=1;strokeColor=none;fillColor=none;align=center;verticalAlign=middle;whiteSpace=wrap;rounded=0;fontSize=23;" parent="DsIkFXhPZ1wWTQOzJaBZ-71" vertex="1">
          <mxGeometry width="60" height="60" as="geometry" />
        </mxCell>
        <mxCell id="DsIkFXhPZ1wWTQOzJaBZ-74" value="" style="rounded=1;whiteSpace=wrap;html=1;fillColor=#60a917;strokeColor=#2D7600;fontColor=#ffffff;" parent="1" vertex="1">
          <mxGeometry x="112" y="1542" width="90" height="45" as="geometry" />
        </mxCell>
        <mxCell id="DsIkFXhPZ1wWTQOzJaBZ-75" value="Pan T Bot" style="text;html=1;strokeColor=none;fillColor=none;align=center;verticalAlign=middle;whiteSpace=wrap;rounded=0;fontSize=23;" parent="1" vertex="1">
          <mxGeometry x="202" y="1549.5" width="120" height="30" as="geometry" />
        </mxCell>
        <mxCell id="DsIkFXhPZ1wWTQOzJaBZ-76" value="" style="rounded=1;whiteSpace=wrap;html=1;fillColor=#1ba1e2;fontColor=#ffffff;strokeColor=#006EAF;" parent="1" vertex="1">
          <mxGeometry x="127" y="1617" width="60" height="45" as="geometry" />
        </mxCell>
        <mxCell id="DsIkFXhPZ1wWTQOzJaBZ-77" value="MW1" style="text;html=1;strokeColor=none;fillColor=none;align=center;verticalAlign=middle;whiteSpace=wrap;rounded=0;fontSize=23;" parent="1" vertex="1">
          <mxGeometry x="232" y="1624.5" width="60" height="30" as="geometry" />
        </mxCell>
        <mxCell id="DsIkFXhPZ1wWTQOzJaBZ-81" value="" style="group" parent="1" vertex="1" connectable="0">
          <mxGeometry x="347" y="472" width="65" height="110" as="geometry" />
        </mxCell>
        <mxCell id="DsIkFXhPZ1wWTQOzJaBZ-79" value="" style="ellipse;whiteSpace=wrap;html=1;aspect=fixed;fillColor=#6a00ff;fontColor=#ffffff;strokeColor=#3700CC;" parent="DsIkFXhPZ1wWTQOzJaBZ-81" vertex="1">
          <mxGeometry x="5" width="50" height="50" as="geometry" />
        </mxCell>
        <mxCell id="DsIkFXhPZ1wWTQOzJaBZ-80" value="4.001&lt;br&gt;2ch" style="text;html=1;strokeColor=none;fillColor=none;align=center;verticalAlign=middle;whiteSpace=wrap;rounded=0;fontSize=23;" parent="DsIkFXhPZ1wWTQOzJaBZ-81" vertex="1">
          <mxGeometry y="50" width="65" height="60" as="geometry" />
        </mxCell>
        <mxCell id="DsIkFXhPZ1wWTQOzJaBZ-82" value="" style="group" parent="1" vertex="1" connectable="0">
          <mxGeometry x="564" y="472" width="65" height="110" as="geometry" />
        </mxCell>
        <mxCell id="DsIkFXhPZ1wWTQOzJaBZ-83" value="" style="ellipse;whiteSpace=wrap;html=1;aspect=fixed;fillColor=#6a00ff;fontColor=#ffffff;strokeColor=#3700CC;" parent="DsIkFXhPZ1wWTQOzJaBZ-82" vertex="1">
          <mxGeometry x="5" width="50" height="50" as="geometry" />
        </mxCell>
        <mxCell id="DsIkFXhPZ1wWTQOzJaBZ-84" value="4.003&lt;br&gt;2ch" style="text;html=1;strokeColor=none;fillColor=none;align=center;verticalAlign=middle;whiteSpace=wrap;rounded=0;fontSize=23;" parent="DsIkFXhPZ1wWTQOzJaBZ-82" vertex="1">
          <mxGeometry y="50" width="65" height="60" as="geometry" />
        </mxCell>
        <mxCell id="DsIkFXhPZ1wWTQOzJaBZ-85" value="" style="group" parent="1" vertex="1" connectable="0">
          <mxGeometry x="853" y="472" width="65" height="110" as="geometry" />
        </mxCell>
        <mxCell id="DsIkFXhPZ1wWTQOzJaBZ-86" value="" style="ellipse;whiteSpace=wrap;html=1;aspect=fixed;fillColor=#6a00ff;fontColor=#ffffff;strokeColor=#3700CC;" parent="DsIkFXhPZ1wWTQOzJaBZ-85" vertex="1">
          <mxGeometry x="5" width="50" height="50" as="geometry" />
        </mxCell>
        <mxCell id="DsIkFXhPZ1wWTQOzJaBZ-87" value="4.005&lt;br&gt;2ch" style="text;html=1;strokeColor=none;fillColor=none;align=center;verticalAlign=middle;whiteSpace=wrap;rounded=0;fontSize=23;" parent="DsIkFXhPZ1wWTQOzJaBZ-85" vertex="1">
          <mxGeometry y="50" width="65" height="60" as="geometry" />
        </mxCell>
        <mxCell id="DsIkFXhPZ1wWTQOzJaBZ-88" value="" style="group" parent="1" vertex="1" connectable="0">
          <mxGeometry x="1196" y="472" width="65" height="110" as="geometry" />
        </mxCell>
        <mxCell id="DsIkFXhPZ1wWTQOzJaBZ-89" value="" style="ellipse;whiteSpace=wrap;html=1;aspect=fixed;fillColor=#6a00ff;fontColor=#ffffff;strokeColor=#3700CC;" parent="DsIkFXhPZ1wWTQOzJaBZ-88" vertex="1">
          <mxGeometry x="5" width="50" height="50" as="geometry" />
        </mxCell>
        <mxCell id="DsIkFXhPZ1wWTQOzJaBZ-90" value="4.007&lt;br&gt;2ch" style="text;html=1;strokeColor=none;fillColor=none;align=center;verticalAlign=middle;whiteSpace=wrap;rounded=0;fontSize=23;" parent="DsIkFXhPZ1wWTQOzJaBZ-88" vertex="1">
          <mxGeometry y="50" width="65" height="60" as="geometry" />
        </mxCell>
        <mxCell id="DsIkFXhPZ1wWTQOzJaBZ-91" value="" style="group" parent="1" vertex="1" connectable="0">
          <mxGeometry x="1498" y="472" width="65" height="110" as="geometry" />
        </mxCell>
        <mxCell id="DsIkFXhPZ1wWTQOzJaBZ-92" value="" style="ellipse;whiteSpace=wrap;html=1;aspect=fixed;fillColor=#6a00ff;fontColor=#ffffff;strokeColor=#3700CC;" parent="DsIkFXhPZ1wWTQOzJaBZ-91" vertex="1">
          <mxGeometry x="5" width="50" height="50" as="geometry" />
        </mxCell>
        <mxCell id="DsIkFXhPZ1wWTQOzJaBZ-93" value="4.009&lt;br&gt;2ch" style="text;html=1;strokeColor=none;fillColor=none;align=center;verticalAlign=middle;whiteSpace=wrap;rounded=0;fontSize=23;" parent="DsIkFXhPZ1wWTQOzJaBZ-91" vertex="1">
          <mxGeometry y="50" width="65" height="60" as="geometry" />
        </mxCell>
        <mxCell id="DsIkFXhPZ1wWTQOzJaBZ-97" value="" style="group" parent="1" vertex="1" connectable="0">
          <mxGeometry x="1707" y="472" width="65" height="110" as="geometry" />
        </mxCell>
        <mxCell id="DsIkFXhPZ1wWTQOzJaBZ-98" value="" style="ellipse;whiteSpace=wrap;html=1;aspect=fixed;fillColor=#6a00ff;fontColor=#ffffff;strokeColor=#3700CC;" parent="DsIkFXhPZ1wWTQOzJaBZ-97" vertex="1">
          <mxGeometry x="5" width="50" height="50" as="geometry" />
        </mxCell>
        <mxCell id="DsIkFXhPZ1wWTQOzJaBZ-99" value="4.011&lt;br&gt;2ch" style="text;html=1;strokeColor=none;fillColor=none;align=center;verticalAlign=middle;whiteSpace=wrap;rounded=0;fontSize=23;" parent="DsIkFXhPZ1wWTQOzJaBZ-97" vertex="1">
          <mxGeometry y="50" width="65" height="60" as="geometry" />
        </mxCell>
        <mxCell id="DsIkFXhPZ1wWTQOzJaBZ-100" value="" style="ellipse;whiteSpace=wrap;html=1;aspect=fixed;fillColor=#6a00ff;fontColor=#ffffff;strokeColor=#3700CC;" parent="1" vertex="1">
          <mxGeometry x="132" y="1692" width="50" height="50" as="geometry" />
        </mxCell>
        <mxCell id="DsIkFXhPZ1wWTQOzJaBZ-101" value="Piccolo Blinder" style="text;html=1;strokeColor=none;fillColor=none;align=center;verticalAlign=middle;whiteSpace=wrap;rounded=0;fontSize=23;" parent="1" vertex="1">
          <mxGeometry x="232" y="1702" width="60" height="30" as="geometry" />
        </mxCell>
        <mxCell id="DsIkFXhPZ1wWTQOzJaBZ-102" value="~ 24&#39; 0&quot;&lt;br&gt;(Behind Drum Riser)" style="text;html=1;strokeColor=none;fillColor=none;align=center;verticalAlign=middle;whiteSpace=wrap;rounded=0;fontSize=45;" parent="1" vertex="1">
          <mxGeometry x="22" y="117" width="325" height="155" as="geometry" />
        </mxCell>
        <mxCell id="DsIkFXhPZ1wWTQOzJaBZ-105" value="" style="group" parent="1" vertex="1" connectable="0">
          <mxGeometry x="434" y="472" width="70" height="110" as="geometry" />
        </mxCell>
        <mxCell id="DsIkFXhPZ1wWTQOzJaBZ-103" value="" style="rounded=1;whiteSpace=wrap;html=1;fillColor=#fa6800;fontColor=#000000;strokeColor=#C73500;" parent="DsIkFXhPZ1wWTQOzJaBZ-105" vertex="1">
          <mxGeometry width="70" height="50" as="geometry" />
        </mxCell>
        <mxCell id="DsIkFXhPZ1wWTQOzJaBZ-104" value="4.013&lt;br&gt;27ch" style="text;html=1;strokeColor=none;fillColor=none;align=center;verticalAlign=middle;whiteSpace=wrap;rounded=0;fontSize=23;" parent="DsIkFXhPZ1wWTQOzJaBZ-105" vertex="1">
          <mxGeometry x="2.5" y="50" width="65" height="60" as="geometry" />
        </mxCell>
        <mxCell id="DsIkFXhPZ1wWTQOzJaBZ-106" value="" style="group" parent="1" vertex="1" connectable="0">
          <mxGeometry x="629" y="472" width="70" height="110" as="geometry" />
        </mxCell>
        <mxCell id="DsIkFXhPZ1wWTQOzJaBZ-107" value="" style="rounded=1;whiteSpace=wrap;html=1;fillColor=#fa6800;fontColor=#000000;strokeColor=#C73500;" parent="DsIkFXhPZ1wWTQOzJaBZ-106" vertex="1">
          <mxGeometry width="70" height="50" as="geometry" />
        </mxCell>
        <mxCell id="DsIkFXhPZ1wWTQOzJaBZ-108" value="4.040&lt;br&gt;27ch" style="text;html=1;strokeColor=none;fillColor=none;align=center;verticalAlign=middle;whiteSpace=wrap;rounded=0;fontSize=23;" parent="DsIkFXhPZ1wWTQOzJaBZ-106" vertex="1">
          <mxGeometry x="2.5" y="50" width="65" height="60" as="geometry" />
        </mxCell>
        <mxCell id="DsIkFXhPZ1wWTQOzJaBZ-109" value="" style="group" parent="1" vertex="1" connectable="0">
          <mxGeometry x="782" y="472" width="70" height="110" as="geometry" />
        </mxCell>
        <mxCell id="DsIkFXhPZ1wWTQOzJaBZ-110" value="" style="rounded=1;whiteSpace=wrap;html=1;fillColor=#fa6800;fontColor=#000000;strokeColor=#C73500;" parent="DsIkFXhPZ1wWTQOzJaBZ-109" vertex="1">
          <mxGeometry width="70" height="50" as="geometry" />
        </mxCell>
        <mxCell id="DsIkFXhPZ1wWTQOzJaBZ-111" value="4.067&lt;br&gt;27ch" style="text;html=1;strokeColor=none;fillColor=none;align=center;verticalAlign=middle;whiteSpace=wrap;rounded=0;fontSize=23;" parent="DsIkFXhPZ1wWTQOzJaBZ-109" vertex="1">
          <mxGeometry x="2.5" y="50" width="65" height="60" as="geometry" />
        </mxCell>
        <mxCell id="DsIkFXhPZ1wWTQOzJaBZ-117" value="" style="group" parent="1" vertex="1" connectable="0">
          <mxGeometry x="1082" y="472" width="60" height="105" as="geometry" />
        </mxCell>
        <mxCell id="DsIkFXhPZ1wWTQOzJaBZ-115" value="3.377&lt;br&gt;14ch" style="text;html=1;strokeColor=none;fillColor=none;align=center;verticalAlign=middle;whiteSpace=wrap;rounded=0;fontSize=23;" parent="DsIkFXhPZ1wWTQOzJaBZ-117" vertex="1">
          <mxGeometry y="45" width="60" height="60" as="geometry" />
        </mxCell>
        <mxCell id="DsIkFXhPZ1wWTQOzJaBZ-116" value="" style="rounded=1;whiteSpace=wrap;html=1;fillColor=#1ba1e2;fontColor=#ffffff;strokeColor=#006EAF;" parent="DsIkFXhPZ1wWTQOzJaBZ-117" vertex="1">
          <mxGeometry width="60" height="45" as="geometry" />
        </mxCell>
        <mxCell id="DsIkFXhPZ1wWTQOzJaBZ-118" value="" style="group" parent="1" vertex="1" connectable="0">
          <mxGeometry x="977" y="472" width="60" height="105" as="geometry" />
        </mxCell>
        <mxCell id="DsIkFXhPZ1wWTQOzJaBZ-114" value="3.363&lt;br&gt;14ch" style="text;html=1;strokeColor=none;fillColor=none;align=center;verticalAlign=middle;whiteSpace=wrap;rounded=0;fontSize=23;" parent="DsIkFXhPZ1wWTQOzJaBZ-118" vertex="1">
          <mxGeometry y="45" width="60" height="60" as="geometry" />
        </mxCell>
        <mxCell id="DsIkFXhPZ1wWTQOzJaBZ-113" value="" style="rounded=1;whiteSpace=wrap;html=1;fillColor=#1ba1e2;fontColor=#ffffff;strokeColor=#006EAF;" parent="DsIkFXhPZ1wWTQOzJaBZ-118" vertex="1">
          <mxGeometry width="60" height="45" as="geometry" />
        </mxCell>
        <mxCell id="DsIkFXhPZ1wWTQOzJaBZ-119" value="" style="group" parent="1" vertex="1" connectable="0">
          <mxGeometry x="1430" y="472" width="70" height="110" as="geometry" />
        </mxCell>
        <mxCell id="DsIkFXhPZ1wWTQOzJaBZ-120" value="" style="rounded=1;whiteSpace=wrap;html=1;fillColor=#fa6800;fontColor=#000000;strokeColor=#C73500;" parent="DsIkFXhPZ1wWTQOzJaBZ-119" vertex="1">
          <mxGeometry width="70" height="50" as="geometry" />
        </mxCell>
        <mxCell id="DsIkFXhPZ1wWTQOzJaBZ-121" value="4.121&lt;br&gt;27ch" style="text;html=1;strokeColor=none;fillColor=none;align=center;verticalAlign=middle;whiteSpace=wrap;rounded=0;fontSize=23;" parent="DsIkFXhPZ1wWTQOzJaBZ-119" vertex="1">
          <mxGeometry x="2.5" y="50" width="65" height="60" as="geometry" />
        </mxCell>
        <mxCell id="DsIkFXhPZ1wWTQOzJaBZ-122" value="" style="group" parent="1" vertex="1" connectable="0">
          <mxGeometry x="1258" y="472" width="70" height="110" as="geometry" />
        </mxCell>
        <mxCell id="DsIkFXhPZ1wWTQOzJaBZ-123" value="" style="rounded=1;whiteSpace=wrap;html=1;fillColor=#fa6800;fontColor=#000000;strokeColor=#C73500;" parent="DsIkFXhPZ1wWTQOzJaBZ-122" vertex="1">
          <mxGeometry width="70" height="50" as="geometry" />
        </mxCell>
        <mxCell id="DsIkFXhPZ1wWTQOzJaBZ-124" value="4.094&lt;br&gt;27ch" style="text;html=1;strokeColor=none;fillColor=none;align=center;verticalAlign=middle;whiteSpace=wrap;rounded=0;fontSize=23;" parent="DsIkFXhPZ1wWTQOzJaBZ-122" vertex="1">
          <mxGeometry x="2.5" y="50" width="65" height="60" as="geometry" />
        </mxCell>
        <mxCell id="DsIkFXhPZ1wWTQOzJaBZ-129" value="" style="group" parent="1" vertex="1" connectable="0">
          <mxGeometry x="1637" y="472" width="70" height="110" as="geometry" />
        </mxCell>
        <mxCell id="DsIkFXhPZ1wWTQOzJaBZ-130" value="" style="rounded=1;whiteSpace=wrap;html=1;fillColor=#fa6800;fontColor=#000000;strokeColor=#C73500;" parent="DsIkFXhPZ1wWTQOzJaBZ-129" vertex="1">
          <mxGeometry width="70" height="50" as="geometry" />
        </mxCell>
        <mxCell id="DsIkFXhPZ1wWTQOzJaBZ-131" value="4.148&lt;br&gt;27ch" style="text;html=1;strokeColor=none;fillColor=none;align=center;verticalAlign=middle;whiteSpace=wrap;rounded=0;fontSize=23;" parent="DsIkFXhPZ1wWTQOzJaBZ-129" vertex="1">
          <mxGeometry x="2.5" y="50" width="65" height="60" as="geometry" />
        </mxCell>
        <mxCell id="DsIkFXhPZ1wWTQOzJaBZ-134" value="" style="group" parent="1" vertex="1" connectable="0">
          <mxGeometry x="342" y="311" width="65" height="148" as="geometry" />
        </mxCell>
        <mxCell id="DsIkFXhPZ1wWTQOzJaBZ-132" value="" style="ellipse;whiteSpace=wrap;html=1;" parent="DsIkFXhPZ1wWTQOzJaBZ-134" vertex="1">
          <mxGeometry x="10" y="64" width="45" height="84" as="geometry" />
        </mxCell>
        <mxCell id="DsIkFXhPZ1wWTQOzJaBZ-133" value="4.175&lt;br&gt;39ch" style="text;html=1;strokeColor=none;fillColor=none;align=center;verticalAlign=middle;whiteSpace=wrap;rounded=0;fontSize=23;" parent="DsIkFXhPZ1wWTQOzJaBZ-134" vertex="1">
          <mxGeometry width="65" height="60" as="geometry" />
        </mxCell>
        <mxCell id="DsIkFXhPZ1wWTQOzJaBZ-135" value="" style="group" parent="1" vertex="1" connectable="0">
          <mxGeometry x="527" y="311" width="65" height="148" as="geometry" />
        </mxCell>
        <mxCell id="DsIkFXhPZ1wWTQOzJaBZ-136" value="" style="ellipse;whiteSpace=wrap;html=1;" parent="DsIkFXhPZ1wWTQOzJaBZ-135" vertex="1">
          <mxGeometry x="10" y="64" width="45" height="84" as="geometry" />
        </mxCell>
        <mxCell id="DsIkFXhPZ1wWTQOzJaBZ-137" value="4.214&lt;br&gt;39ch" style="text;html=1;strokeColor=none;fillColor=none;align=center;verticalAlign=middle;whiteSpace=wrap;rounded=0;fontSize=23;" parent="DsIkFXhPZ1wWTQOzJaBZ-135" vertex="1">
          <mxGeometry width="65" height="60" as="geometry" />
        </mxCell>
        <mxCell id="DsIkFXhPZ1wWTQOzJaBZ-138" value="" style="group" parent="1" vertex="1" connectable="0">
          <mxGeometry x="711" y="311" width="65" height="148" as="geometry" />
        </mxCell>
        <mxCell id="DsIkFXhPZ1wWTQOzJaBZ-139" value="" style="ellipse;whiteSpace=wrap;html=1;" parent="DsIkFXhPZ1wWTQOzJaBZ-138" vertex="1">
          <mxGeometry x="10" y="64" width="45" height="84" as="geometry" />
        </mxCell>
        <mxCell id="DsIkFXhPZ1wWTQOzJaBZ-140" value="4.253&lt;br&gt;39ch" style="text;html=1;strokeColor=none;fillColor=none;align=center;verticalAlign=middle;whiteSpace=wrap;rounded=0;fontSize=23;" parent="DsIkFXhPZ1wWTQOzJaBZ-138" vertex="1">
          <mxGeometry width="65" height="60" as="geometry" />
        </mxCell>
        <mxCell id="DsIkFXhPZ1wWTQOzJaBZ-141" value="" style="group" parent="1" vertex="1" connectable="0">
          <mxGeometry x="1172" y="311" width="65" height="148" as="geometry" />
        </mxCell>
        <mxCell id="Yz1NdHYIqoeAfp1s1f4n-201" style="edgeStyle=orthogonalEdgeStyle;rounded=0;orthogonalLoop=1;jettySize=auto;html=1;exitX=1;exitY=0.5;exitDx=0;exitDy=0;strokeWidth=3;" edge="1" parent="DsIkFXhPZ1wWTQOzJaBZ-141" source="DsIkFXhPZ1wWTQOzJaBZ-142">
          <mxGeometry relative="1" as="geometry">
            <mxPoint x="188" y="107" as="targetPoint" />
          </mxGeometry>
        </mxCell>
        <mxCell id="DsIkFXhPZ1wWTQOzJaBZ-142" value="" style="ellipse;whiteSpace=wrap;html=1;" parent="DsIkFXhPZ1wWTQOzJaBZ-141" vertex="1">
          <mxGeometry x="10" y="64" width="45" height="84" as="geometry" />
        </mxCell>
        <mxCell id="DsIkFXhPZ1wWTQOzJaBZ-143" value="4.331&lt;br&gt;39ch" style="text;html=1;strokeColor=none;fillColor=none;align=center;verticalAlign=middle;whiteSpace=wrap;rounded=0;fontSize=23;" parent="DsIkFXhPZ1wWTQOzJaBZ-141" vertex="1">
          <mxGeometry width="65" height="60" as="geometry" />
        </mxCell>
        <mxCell id="DsIkFXhPZ1wWTQOzJaBZ-144" value="" style="group" parent="1" vertex="1" connectable="0">
          <mxGeometry x="896" y="311" width="65" height="148" as="geometry" />
        </mxCell>
        <mxCell id="DsIkFXhPZ1wWTQOzJaBZ-145" value="" style="ellipse;whiteSpace=wrap;html=1;" parent="DsIkFXhPZ1wWTQOzJaBZ-144" vertex="1">
          <mxGeometry x="10" y="64" width="45" height="84" as="geometry" />
        </mxCell>
        <mxCell id="DsIkFXhPZ1wWTQOzJaBZ-146" value="4.292&lt;br&gt;39ch" style="text;html=1;strokeColor=none;fillColor=none;align=center;verticalAlign=middle;whiteSpace=wrap;rounded=0;fontSize=23;" parent="DsIkFXhPZ1wWTQOzJaBZ-144" vertex="1">
          <mxGeometry width="65" height="60" as="geometry" />
        </mxCell>
        <mxCell id="DsIkFXhPZ1wWTQOzJaBZ-147" value="" style="group" parent="1" vertex="1" connectable="0">
          <mxGeometry x="1357" y="311" width="65" height="148" as="geometry" />
        </mxCell>
        <mxCell id="DsIkFXhPZ1wWTQOzJaBZ-148" value="" style="ellipse;whiteSpace=wrap;html=1;" parent="DsIkFXhPZ1wWTQOzJaBZ-147" vertex="1">
          <mxGeometry x="10" y="64" width="45" height="84" as="geometry" />
        </mxCell>
        <mxCell id="DsIkFXhPZ1wWTQOzJaBZ-149" value="4.371&lt;br&gt;39ch" style="text;html=1;strokeColor=none;fillColor=none;align=center;verticalAlign=middle;whiteSpace=wrap;rounded=0;fontSize=23;" parent="DsIkFXhPZ1wWTQOzJaBZ-147" vertex="1">
          <mxGeometry width="65" height="60" as="geometry" />
        </mxCell>
        <mxCell id="DsIkFXhPZ1wWTQOzJaBZ-150" value="" style="group" parent="1" vertex="1" connectable="0">
          <mxGeometry x="1541" y="311" width="65" height="148" as="geometry" />
        </mxCell>
        <mxCell id="DsIkFXhPZ1wWTQOzJaBZ-151" value="" style="ellipse;whiteSpace=wrap;html=1;" parent="DsIkFXhPZ1wWTQOzJaBZ-150" vertex="1">
          <mxGeometry x="10" y="64" width="45" height="84" as="geometry" />
        </mxCell>
        <mxCell id="DsIkFXhPZ1wWTQOzJaBZ-152" value="4.409&lt;br&gt;39ch" style="text;html=1;strokeColor=none;fillColor=none;align=center;verticalAlign=middle;whiteSpace=wrap;rounded=0;fontSize=23;" parent="DsIkFXhPZ1wWTQOzJaBZ-150" vertex="1">
          <mxGeometry width="65" height="60" as="geometry" />
        </mxCell>
        <mxCell id="DsIkFXhPZ1wWTQOzJaBZ-153" value="" style="group" parent="1" vertex="1" connectable="0">
          <mxGeometry x="1726" y="311" width="65" height="148" as="geometry" />
        </mxCell>
        <mxCell id="DsIkFXhPZ1wWTQOzJaBZ-154" value="" style="ellipse;whiteSpace=wrap;html=1;" parent="DsIkFXhPZ1wWTQOzJaBZ-153" vertex="1">
          <mxGeometry x="10" y="64" width="45" height="84" as="geometry" />
        </mxCell>
        <mxCell id="DsIkFXhPZ1wWTQOzJaBZ-155" value="4.448&lt;br&gt;39ch" style="text;html=1;strokeColor=none;fillColor=none;align=center;verticalAlign=middle;whiteSpace=wrap;rounded=0;fontSize=23;" parent="DsIkFXhPZ1wWTQOzJaBZ-153" vertex="1">
          <mxGeometry width="65" height="60" as="geometry" />
        </mxCell>
        <mxCell id="DsIkFXhPZ1wWTQOzJaBZ-156" value="" style="ellipse;whiteSpace=wrap;html=1;" parent="1" vertex="1">
          <mxGeometry x="134.5" y="1775" width="45" height="84" as="geometry" />
        </mxCell>
        <mxCell id="DsIkFXhPZ1wWTQOzJaBZ-157" value="Framebot 600" style="text;html=1;strokeColor=none;fillColor=none;align=center;verticalAlign=middle;whiteSpace=wrap;rounded=0;fontSize=23;" parent="1" vertex="1">
          <mxGeometry x="236" y="1802" width="60" height="30" as="geometry" />
        </mxCell>
        <mxCell id="Yz1NdHYIqoeAfp1s1f4n-1" value="" style="group" vertex="1" connectable="0" parent="1">
          <mxGeometry x="620" y="109" width="65" height="148" as="geometry" />
        </mxCell>
        <mxCell id="Yz1NdHYIqoeAfp1s1f4n-2" value="" style="ellipse;whiteSpace=wrap;html=1;" vertex="1" parent="Yz1NdHYIqoeAfp1s1f4n-1">
          <mxGeometry x="10" y="64" width="45" height="84" as="geometry" />
        </mxCell>
        <mxCell id="Yz1NdHYIqoeAfp1s1f4n-3" value="1.177&lt;br&gt;39ch" style="text;html=1;strokeColor=none;fillColor=none;align=center;verticalAlign=middle;whiteSpace=wrap;rounded=0;fontSize=23;" vertex="1" parent="Yz1NdHYIqoeAfp1s1f4n-1">
          <mxGeometry width="65" height="60" as="geometry" />
        </mxCell>
        <mxCell id="Yz1NdHYIqoeAfp1s1f4n-4" value="" style="group" vertex="1" connectable="0" parent="1">
          <mxGeometry x="892" y="107" width="65" height="148" as="geometry" />
        </mxCell>
        <mxCell id="Yz1NdHYIqoeAfp1s1f4n-5" value="" style="ellipse;whiteSpace=wrap;html=1;" vertex="1" parent="Yz1NdHYIqoeAfp1s1f4n-4">
          <mxGeometry x="10" y="64" width="45" height="84" as="geometry" />
        </mxCell>
        <mxCell id="Yz1NdHYIqoeAfp1s1f4n-6" value="1.216&lt;br&gt;22ch" style="text;html=1;strokeColor=none;fillColor=none;align=center;verticalAlign=middle;whiteSpace=wrap;rounded=0;fontSize=23;" vertex="1" parent="Yz1NdHYIqoeAfp1s1f4n-4">
          <mxGeometry width="65" height="60" as="geometry" />
        </mxCell>
        <mxCell id="Yz1NdHYIqoeAfp1s1f4n-7" value="" style="group" vertex="1" connectable="0" parent="1">
          <mxGeometry x="1169" y="107" width="65" height="148" as="geometry" />
        </mxCell>
        <mxCell id="Yz1NdHYIqoeAfp1s1f4n-8" value="" style="ellipse;whiteSpace=wrap;html=1;" vertex="1" parent="Yz1NdHYIqoeAfp1s1f4n-7">
          <mxGeometry x="10" y="64" width="45" height="84" as="geometry" />
        </mxCell>
        <mxCell id="Yz1NdHYIqoeAfp1s1f4n-9" value="1.255&lt;br&gt;39ch" style="text;html=1;strokeColor=none;fillColor=none;align=center;verticalAlign=middle;whiteSpace=wrap;rounded=0;fontSize=23;" vertex="1" parent="Yz1NdHYIqoeAfp1s1f4n-7">
          <mxGeometry width="65" height="60" as="geometry" />
        </mxCell>
        <mxCell id="Yz1NdHYIqoeAfp1s1f4n-10" value="" style="group" vertex="1" connectable="0" parent="1">
          <mxGeometry x="1441" y="105" width="65" height="148" as="geometry" />
        </mxCell>
        <mxCell id="Yz1NdHYIqoeAfp1s1f4n-11" value="" style="ellipse;whiteSpace=wrap;html=1;" vertex="1" parent="Yz1NdHYIqoeAfp1s1f4n-10">
          <mxGeometry x="10" y="64" width="45" height="84" as="geometry" />
        </mxCell>
        <mxCell id="Yz1NdHYIqoeAfp1s1f4n-12" value="1.294&lt;br&gt;39ch" style="text;html=1;strokeColor=none;fillColor=none;align=center;verticalAlign=middle;whiteSpace=wrap;rounded=0;fontSize=23;" vertex="1" parent="Yz1NdHYIqoeAfp1s1f4n-10">
          <mxGeometry width="65" height="60" as="geometry" />
        </mxCell>
        <mxCell id="Yz1NdHYIqoeAfp1s1f4n-15" value="" style="group" vertex="1" connectable="0" parent="1">
          <mxGeometry x="404" y="127" width="72" height="138" as="geometry" />
        </mxCell>
        <mxCell id="Yz1NdHYIqoeAfp1s1f4n-13" value="" style="rounded=0;whiteSpace=wrap;html=1;fillColor=#f5f5f5;gradientColor=#b3b3b3;strokeColor=#666666;" vertex="1" parent="Yz1NdHYIqoeAfp1s1f4n-15">
          <mxGeometry width="72" height="78" as="geometry" />
        </mxCell>
        <mxCell id="Yz1NdHYIqoeAfp1s1f4n-14" value="1.500&lt;br&gt;2ch" style="text;html=1;strokeColor=none;fillColor=none;align=center;verticalAlign=middle;whiteSpace=wrap;rounded=0;fontSize=23;" vertex="1" parent="Yz1NdHYIqoeAfp1s1f4n-15">
          <mxGeometry x="7" y="78" width="65" height="60" as="geometry" />
        </mxCell>
        <mxCell id="Yz1NdHYIqoeAfp1s1f4n-16" value="" style="group" vertex="1" connectable="0" parent="1">
          <mxGeometry x="1665" y="127" width="72" height="138" as="geometry" />
        </mxCell>
        <mxCell id="Yz1NdHYIqoeAfp1s1f4n-17" value="" style="rounded=0;whiteSpace=wrap;html=1;fillColor=#f5f5f5;gradientColor=#b3b3b3;strokeColor=#666666;" vertex="1" parent="Yz1NdHYIqoeAfp1s1f4n-16">
          <mxGeometry width="72" height="78" as="geometry" />
        </mxCell>
        <mxCell id="Yz1NdHYIqoeAfp1s1f4n-18" value="1.500&lt;br&gt;2ch" style="text;html=1;strokeColor=none;fillColor=none;align=center;verticalAlign=middle;whiteSpace=wrap;rounded=0;fontSize=23;" vertex="1" parent="Yz1NdHYIqoeAfp1s1f4n-16">
          <mxGeometry x="7" y="78" width="65" height="60" as="geometry" />
        </mxCell>
        <mxCell id="Yz1NdHYIqoeAfp1s1f4n-19" value="" style="rounded=0;whiteSpace=wrap;html=1;fillColor=#f5f5f5;gradientColor=#b3b3b3;strokeColor=#666666;" vertex="1" parent="1">
          <mxGeometry x="414" y="1525.5" width="72" height="78" as="geometry" />
        </mxCell>
        <mxCell id="Yz1NdHYIqoeAfp1s1f4n-20" value="Hazer" style="text;html=1;strokeColor=none;fillColor=none;align=center;verticalAlign=middle;whiteSpace=wrap;rounded=0;fontSize=23;" vertex="1" parent="1">
          <mxGeometry x="488" y="1549.5" width="120" height="30" as="geometry" />
        </mxCell>
        <mxCell id="Yz1NdHYIqoeAfp1s1f4n-25" value="" style="group" vertex="1" connectable="0" parent="1">
          <mxGeometry x="528.5" y="105" width="65" height="163" as="geometry" />
        </mxCell>
        <mxCell id="Yz1NdHYIqoeAfp1s1f4n-21" value="" style="rounded=1;whiteSpace=wrap;html=1;fillColor=#a20025;fontColor=#ffffff;strokeColor=#6F0000;" vertex="1" parent="Yz1NdHYIqoeAfp1s1f4n-25">
          <mxGeometry x="1.5" y="61" width="62" height="102" as="geometry" />
        </mxCell>
        <mxCell id="Yz1NdHYIqoeAfp1s1f4n-24" value="1.001&lt;br&gt;22ch" style="text;html=1;strokeColor=none;fillColor=none;align=center;verticalAlign=middle;whiteSpace=wrap;rounded=0;fontSize=23;" vertex="1" parent="Yz1NdHYIqoeAfp1s1f4n-25">
          <mxGeometry width="65" height="60" as="geometry" />
        </mxCell>
        <mxCell id="Yz1NdHYIqoeAfp1s1f4n-26" value="" style="group" vertex="1" connectable="0" parent="1">
          <mxGeometry x="712" y="107" width="65" height="163" as="geometry" />
        </mxCell>
        <mxCell id="Yz1NdHYIqoeAfp1s1f4n-27" value="" style="rounded=1;whiteSpace=wrap;html=1;fillColor=#a20025;fontColor=#ffffff;strokeColor=#6F0000;" vertex="1" parent="Yz1NdHYIqoeAfp1s1f4n-26">
          <mxGeometry x="1.5" y="61" width="62" height="102" as="geometry" />
        </mxCell>
        <mxCell id="Yz1NdHYIqoeAfp1s1f4n-28" value="1.023&lt;br&gt;22ch" style="text;html=1;strokeColor=none;fillColor=none;align=center;verticalAlign=middle;whiteSpace=wrap;rounded=0;fontSize=23;" vertex="1" parent="Yz1NdHYIqoeAfp1s1f4n-26">
          <mxGeometry width="65" height="60" as="geometry" />
        </mxCell>
        <mxCell id="Yz1NdHYIqoeAfp1s1f4n-29" value="" style="group" vertex="1" connectable="0" parent="1">
          <mxGeometry x="808" y="107" width="65" height="163" as="geometry" />
        </mxCell>
        <mxCell id="Yz1NdHYIqoeAfp1s1f4n-30" value="" style="rounded=1;whiteSpace=wrap;html=1;fillColor=#a20025;fontColor=#ffffff;strokeColor=#6F0000;" vertex="1" parent="Yz1NdHYIqoeAfp1s1f4n-29">
          <mxGeometry x="1.5" y="61" width="62" height="102" as="geometry" />
        </mxCell>
        <mxCell id="Yz1NdHYIqoeAfp1s1f4n-31" value="1.045&lt;br&gt;22ch" style="text;html=1;strokeColor=none;fillColor=none;align=center;verticalAlign=middle;whiteSpace=wrap;rounded=0;fontSize=23;" vertex="1" parent="Yz1NdHYIqoeAfp1s1f4n-29">
          <mxGeometry width="65" height="60" as="geometry" />
        </mxCell>
        <mxCell id="Yz1NdHYIqoeAfp1s1f4n-32" value="" style="group" vertex="1" connectable="0" parent="1">
          <mxGeometry x="987" y="106" width="65" height="163" as="geometry" />
        </mxCell>
        <mxCell id="Yz1NdHYIqoeAfp1s1f4n-33" value="" style="rounded=1;whiteSpace=wrap;html=1;fillColor=#a20025;fontColor=#ffffff;strokeColor=#6F0000;" vertex="1" parent="Yz1NdHYIqoeAfp1s1f4n-32">
          <mxGeometry x="1.5" y="61" width="62" height="102" as="geometry" />
        </mxCell>
        <mxCell id="Yz1NdHYIqoeAfp1s1f4n-34" value="1.067&lt;br&gt;22ch" style="text;html=1;strokeColor=none;fillColor=none;align=center;verticalAlign=middle;whiteSpace=wrap;rounded=0;fontSize=23;" vertex="1" parent="Yz1NdHYIqoeAfp1s1f4n-32">
          <mxGeometry width="65" height="60" as="geometry" />
        </mxCell>
        <mxCell id="Yz1NdHYIqoeAfp1s1f4n-35" value="" style="group" vertex="1" connectable="0" parent="1">
          <mxGeometry x="1078" y="106" width="65" height="163" as="geometry" />
        </mxCell>
        <mxCell id="Yz1NdHYIqoeAfp1s1f4n-36" value="" style="rounded=1;whiteSpace=wrap;html=1;fillColor=#a20025;fontColor=#ffffff;strokeColor=#6F0000;" vertex="1" parent="Yz1NdHYIqoeAfp1s1f4n-35">
          <mxGeometry x="1.5" y="61" width="62" height="102" as="geometry" />
        </mxCell>
        <mxCell id="Yz1NdHYIqoeAfp1s1f4n-37" value="1.089&lt;br&gt;22ch" style="text;html=1;strokeColor=none;fillColor=none;align=center;verticalAlign=middle;whiteSpace=wrap;rounded=0;fontSize=23;" vertex="1" parent="Yz1NdHYIqoeAfp1s1f4n-35">
          <mxGeometry width="65" height="60" as="geometry" />
        </mxCell>
        <mxCell id="Yz1NdHYIqoeAfp1s1f4n-38" value="" style="group" vertex="1" connectable="0" parent="1">
          <mxGeometry x="1265" y="106" width="65" height="163" as="geometry" />
        </mxCell>
        <mxCell id="Yz1NdHYIqoeAfp1s1f4n-39" value="" style="rounded=1;whiteSpace=wrap;html=1;fillColor=#a20025;fontColor=#ffffff;strokeColor=#6F0000;" vertex="1" parent="Yz1NdHYIqoeAfp1s1f4n-38">
          <mxGeometry x="1.5" y="61" width="62" height="102" as="geometry" />
        </mxCell>
        <mxCell id="Yz1NdHYIqoeAfp1s1f4n-40" value="1.111&lt;br&gt;22ch" style="text;html=1;strokeColor=none;fillColor=none;align=center;verticalAlign=middle;whiteSpace=wrap;rounded=0;fontSize=23;" vertex="1" parent="Yz1NdHYIqoeAfp1s1f4n-38">
          <mxGeometry width="65" height="60" as="geometry" />
        </mxCell>
        <mxCell id="Yz1NdHYIqoeAfp1s1f4n-41" value="" style="group" vertex="1" connectable="0" parent="1">
          <mxGeometry x="1352" y="106" width="65" height="163" as="geometry" />
        </mxCell>
        <mxCell id="Yz1NdHYIqoeAfp1s1f4n-42" value="" style="rounded=1;whiteSpace=wrap;html=1;fillColor=#a20025;fontColor=#ffffff;strokeColor=#6F0000;" vertex="1" parent="Yz1NdHYIqoeAfp1s1f4n-41">
          <mxGeometry x="1.5" y="61" width="62" height="102" as="geometry" />
        </mxCell>
        <mxCell id="Yz1NdHYIqoeAfp1s1f4n-43" value="1.133&lt;br&gt;22ch" style="text;html=1;strokeColor=none;fillColor=none;align=center;verticalAlign=middle;whiteSpace=wrap;rounded=0;fontSize=23;" vertex="1" parent="Yz1NdHYIqoeAfp1s1f4n-41">
          <mxGeometry width="65" height="60" as="geometry" />
        </mxCell>
        <mxCell id="Yz1NdHYIqoeAfp1s1f4n-44" value="" style="group" vertex="1" connectable="0" parent="1">
          <mxGeometry x="1536" y="106" width="65" height="163" as="geometry" />
        </mxCell>
        <mxCell id="Yz1NdHYIqoeAfp1s1f4n-45" value="" style="rounded=1;whiteSpace=wrap;html=1;fillColor=#a20025;fontColor=#ffffff;strokeColor=#6F0000;" vertex="1" parent="Yz1NdHYIqoeAfp1s1f4n-44">
          <mxGeometry x="1.5" y="61" width="62" height="102" as="geometry" />
        </mxCell>
        <mxCell id="Yz1NdHYIqoeAfp1s1f4n-46" value="1.155&lt;br&gt;22ch" style="text;html=1;strokeColor=none;fillColor=none;align=center;verticalAlign=middle;whiteSpace=wrap;rounded=0;fontSize=23;" vertex="1" parent="Yz1NdHYIqoeAfp1s1f4n-44">
          <mxGeometry width="65" height="60" as="geometry" />
        </mxCell>
        <mxCell id="Yz1NdHYIqoeAfp1s1f4n-47" value="" style="rounded=1;whiteSpace=wrap;html=1;fillColor=#a20025;fontColor=#ffffff;strokeColor=#6F0000;" vertex="1" parent="1">
          <mxGeometry x="419" y="1632" width="62" height="102" as="geometry" />
        </mxCell>
        <mxCell id="Yz1NdHYIqoeAfp1s1f4n-48" value="EB1" style="text;html=1;strokeColor=none;fillColor=none;align=center;verticalAlign=middle;whiteSpace=wrap;rounded=0;fontSize=23;" vertex="1" parent="1">
          <mxGeometry x="486" y="1668" width="120" height="30" as="geometry" />
        </mxCell>
        <mxCell id="Yz1NdHYIqoeAfp1s1f4n-49" value="" style="rounded=1;whiteSpace=wrap;html=1;fillColor=#fa6800;fontColor=#000000;strokeColor=#C73500;" vertex="1" parent="1">
          <mxGeometry x="415" y="1778" width="70" height="50" as="geometry" />
        </mxCell>
        <mxCell id="Yz1NdHYIqoeAfp1s1f4n-50" value="EW1" style="text;html=1;strokeColor=none;fillColor=none;align=center;verticalAlign=middle;whiteSpace=wrap;rounded=0;fontSize=23;" vertex="1" parent="1">
          <mxGeometry x="485" y="1790" width="120" height="30" as="geometry" />
        </mxCell>
        <mxCell id="Yz1NdHYIqoeAfp1s1f4n-51" value="" style="group" vertex="1" connectable="0" parent="1">
          <mxGeometry x="851" y="1660" width="90" height="105" as="geometry" />
        </mxCell>
        <mxCell id="Yz1NdHYIqoeAfp1s1f4n-52" value="" style="rounded=1;whiteSpace=wrap;html=1;fillColor=#60a917;fontColor=#ffffff;strokeColor=#2D7600;" vertex="1" parent="Yz1NdHYIqoeAfp1s1f4n-51">
          <mxGeometry width="90" height="45" as="geometry" />
        </mxCell>
        <mxCell id="Yz1NdHYIqoeAfp1s1f4n-53" value="2.85&lt;br&gt;23ch" style="text;html=1;strokeColor=none;fillColor=none;align=center;verticalAlign=middle;whiteSpace=wrap;rounded=0;fontSize=23;" vertex="1" parent="Yz1NdHYIqoeAfp1s1f4n-51">
          <mxGeometry x="15" y="45" width="60" height="60" as="geometry" />
        </mxCell>
        <mxCell id="Yz1NdHYIqoeAfp1s1f4n-54" value="" style="group" vertex="1" connectable="0" parent="1">
          <mxGeometry x="962" y="1658" width="90" height="105" as="geometry" />
        </mxCell>
        <mxCell id="Yz1NdHYIqoeAfp1s1f4n-55" value="" style="rounded=1;whiteSpace=wrap;html=1;fillColor=#60a917;fontColor=#ffffff;strokeColor=#2D7600;" vertex="1" parent="Yz1NdHYIqoeAfp1s1f4n-54">
          <mxGeometry width="90" height="45" as="geometry" />
        </mxCell>
        <mxCell id="Yz1NdHYIqoeAfp1s1f4n-56" value="2.108&lt;br&gt;23ch" style="text;html=1;strokeColor=none;fillColor=none;align=center;verticalAlign=middle;whiteSpace=wrap;rounded=0;fontSize=23;" vertex="1" parent="Yz1NdHYIqoeAfp1s1f4n-54">
          <mxGeometry x="15" y="45" width="60" height="60" as="geometry" />
        </mxCell>
        <mxCell id="Yz1NdHYIqoeAfp1s1f4n-57" value="" style="group" vertex="1" connectable="0" parent="1">
          <mxGeometry x="1074" y="1658" width="90" height="105" as="geometry" />
        </mxCell>
        <mxCell id="Yz1NdHYIqoeAfp1s1f4n-58" value="" style="rounded=1;whiteSpace=wrap;html=1;fillColor=#60a917;fontColor=#ffffff;strokeColor=#2D7600;" vertex="1" parent="Yz1NdHYIqoeAfp1s1f4n-57">
          <mxGeometry width="90" height="45" as="geometry" />
        </mxCell>
        <mxCell id="Yz1NdHYIqoeAfp1s1f4n-59" value="2.131&lt;br&gt;23ch" style="text;html=1;strokeColor=none;fillColor=none;align=center;verticalAlign=middle;whiteSpace=wrap;rounded=0;fontSize=23;" vertex="1" parent="Yz1NdHYIqoeAfp1s1f4n-57">
          <mxGeometry x="15" y="45" width="60" height="60" as="geometry" />
        </mxCell>
        <mxCell id="Yz1NdHYIqoeAfp1s1f4n-60" value="" style="group" vertex="1" connectable="0" parent="1">
          <mxGeometry x="1185" y="1656" width="90" height="105" as="geometry" />
        </mxCell>
        <mxCell id="Yz1NdHYIqoeAfp1s1f4n-61" value="" style="rounded=1;whiteSpace=wrap;html=1;fillColor=#60a917;fontColor=#ffffff;strokeColor=#2D7600;" vertex="1" parent="Yz1NdHYIqoeAfp1s1f4n-60">
          <mxGeometry width="90" height="45" as="geometry" />
        </mxCell>
        <mxCell id="Yz1NdHYIqoeAfp1s1f4n-62" value="2.154&lt;br&gt;23ch" style="text;html=1;strokeColor=none;fillColor=none;align=center;verticalAlign=middle;whiteSpace=wrap;rounded=0;fontSize=23;" vertex="1" parent="Yz1NdHYIqoeAfp1s1f4n-60">
          <mxGeometry x="15" y="45" width="60" height="60" as="geometry" />
        </mxCell>
        <mxCell id="Yz1NdHYIqoeAfp1s1f4n-63" value="" style="group" vertex="1" connectable="0" parent="1">
          <mxGeometry x="860" y="1535" width="60" height="115" as="geometry" />
        </mxCell>
        <mxCell id="Yz1NdHYIqoeAfp1s1f4n-64" value="" style="rounded=1;whiteSpace=wrap;html=1;fillColor=#1ba1e2;fontColor=#ffffff;strokeColor=#006EAF;" vertex="1" parent="Yz1NdHYIqoeAfp1s1f4n-63">
          <mxGeometry y="70" width="60" height="45" as="geometry" />
        </mxCell>
        <mxCell id="Yz1NdHYIqoeAfp1s1f4n-65" value="2.001&lt;br&gt;14ch" style="text;html=1;strokeColor=none;fillColor=none;align=center;verticalAlign=middle;whiteSpace=wrap;rounded=0;fontSize=23;" vertex="1" parent="Yz1NdHYIqoeAfp1s1f4n-63">
          <mxGeometry width="60" height="60" as="geometry" />
        </mxCell>
        <mxCell id="Yz1NdHYIqoeAfp1s1f4n-69" value="" style="group" vertex="1" connectable="0" parent="1">
          <mxGeometry x="928" y="1535" width="60" height="115" as="geometry" />
        </mxCell>
        <mxCell id="Yz1NdHYIqoeAfp1s1f4n-70" value="" style="rounded=1;whiteSpace=wrap;html=1;fillColor=#1ba1e2;fontColor=#ffffff;strokeColor=#006EAF;" vertex="1" parent="Yz1NdHYIqoeAfp1s1f4n-69">
          <mxGeometry y="70" width="60" height="45" as="geometry" />
        </mxCell>
        <mxCell id="Yz1NdHYIqoeAfp1s1f4n-71" value="2.015&lt;br&gt;14ch" style="text;html=1;strokeColor=none;fillColor=none;align=center;verticalAlign=middle;whiteSpace=wrap;rounded=0;fontSize=23;" vertex="1" parent="Yz1NdHYIqoeAfp1s1f4n-69">
          <mxGeometry width="60" height="60" as="geometry" />
        </mxCell>
        <mxCell id="Yz1NdHYIqoeAfp1s1f4n-72" value="" style="group" vertex="1" connectable="0" parent="1">
          <mxGeometry x="995" y="1535" width="60" height="115" as="geometry" />
        </mxCell>
        <mxCell id="Yz1NdHYIqoeAfp1s1f4n-73" value="" style="rounded=1;whiteSpace=wrap;html=1;fillColor=#1ba1e2;fontColor=#ffffff;strokeColor=#006EAF;" vertex="1" parent="Yz1NdHYIqoeAfp1s1f4n-72">
          <mxGeometry y="70" width="60" height="45" as="geometry" />
        </mxCell>
        <mxCell id="Yz1NdHYIqoeAfp1s1f4n-74" value="2.029&lt;br&gt;14ch" style="text;html=1;strokeColor=none;fillColor=none;align=center;verticalAlign=middle;whiteSpace=wrap;rounded=0;fontSize=23;" vertex="1" parent="Yz1NdHYIqoeAfp1s1f4n-72">
          <mxGeometry width="60" height="60" as="geometry" />
        </mxCell>
        <mxCell id="Yz1NdHYIqoeAfp1s1f4n-75" value="" style="group" vertex="1" connectable="0" parent="1">
          <mxGeometry x="1063" y="1535" width="60" height="115" as="geometry" />
        </mxCell>
        <mxCell id="Yz1NdHYIqoeAfp1s1f4n-76" value="" style="rounded=1;whiteSpace=wrap;html=1;fillColor=#1ba1e2;fontColor=#ffffff;strokeColor=#006EAF;" vertex="1" parent="Yz1NdHYIqoeAfp1s1f4n-75">
          <mxGeometry y="70" width="60" height="45" as="geometry" />
        </mxCell>
        <mxCell id="Yz1NdHYIqoeAfp1s1f4n-77" value="2.043&lt;br&gt;14ch" style="text;html=1;strokeColor=none;fillColor=none;align=center;verticalAlign=middle;whiteSpace=wrap;rounded=0;fontSize=23;" vertex="1" parent="Yz1NdHYIqoeAfp1s1f4n-75">
          <mxGeometry width="60" height="60" as="geometry" />
        </mxCell>
        <mxCell id="Yz1NdHYIqoeAfp1s1f4n-78" value="" style="group" vertex="1" connectable="0" parent="1">
          <mxGeometry x="1130" y="1535" width="60" height="115" as="geometry" />
        </mxCell>
        <mxCell id="Yz1NdHYIqoeAfp1s1f4n-79" value="" style="rounded=1;whiteSpace=wrap;html=1;fillColor=#1ba1e2;fontColor=#ffffff;strokeColor=#006EAF;" vertex="1" parent="Yz1NdHYIqoeAfp1s1f4n-78">
          <mxGeometry y="70" width="60" height="45" as="geometry" />
        </mxCell>
        <mxCell id="Yz1NdHYIqoeAfp1s1f4n-80" value="2.057&lt;br&gt;14ch" style="text;html=1;strokeColor=none;fillColor=none;align=center;verticalAlign=middle;whiteSpace=wrap;rounded=0;fontSize=23;" vertex="1" parent="Yz1NdHYIqoeAfp1s1f4n-78">
          <mxGeometry width="60" height="60" as="geometry" />
        </mxCell>
        <mxCell id="Yz1NdHYIqoeAfp1s1f4n-81" value="" style="group" vertex="1" connectable="0" parent="1">
          <mxGeometry x="1198" y="1535" width="60" height="115" as="geometry" />
        </mxCell>
        <mxCell id="Yz1NdHYIqoeAfp1s1f4n-82" value="" style="rounded=1;whiteSpace=wrap;html=1;fillColor=#1ba1e2;fontColor=#ffffff;strokeColor=#006EAF;" vertex="1" parent="Yz1NdHYIqoeAfp1s1f4n-81">
          <mxGeometry y="70" width="60" height="45" as="geometry" />
        </mxCell>
        <mxCell id="Yz1NdHYIqoeAfp1s1f4n-83" value="2.071&lt;br&gt;14ch" style="text;html=1;strokeColor=none;fillColor=none;align=center;verticalAlign=middle;whiteSpace=wrap;rounded=0;fontSize=23;" vertex="1" parent="Yz1NdHYIqoeAfp1s1f4n-81">
          <mxGeometry width="60" height="60" as="geometry" />
        </mxCell>
        <mxCell id="Yz1NdHYIqoeAfp1s1f4n-100" style="edgeStyle=orthogonalEdgeStyle;rounded=0;orthogonalLoop=1;jettySize=auto;html=1;entryX=0.75;entryY=0;entryDx=0;entryDy=0;exitX=0;exitY=0.5;exitDx=0;exitDy=0;" edge="1" parent="1" source="Yz1NdHYIqoeAfp1s1f4n-189" target="Yz1NdHYIqoeAfp1s1f4n-17">
          <mxGeometry relative="1" as="geometry">
            <mxPoint x="2050" y="540" as="targetPoint" />
            <mxPoint x="2212" y="500" as="sourcePoint" />
            <Array as="points">
              <mxPoint x="2003" y="499" />
              <mxPoint x="2003" y="107" />
              <mxPoint x="1719" y="107" />
            </Array>
          </mxGeometry>
        </mxCell>
        <mxCell id="Yz1NdHYIqoeAfp1s1f4n-101" style="edgeStyle=orthogonalEdgeStyle;rounded=0;orthogonalLoop=1;jettySize=auto;html=1;exitX=0.25;exitY=0;exitDx=0;exitDy=0;entryX=0.75;entryY=0;entryDx=0;entryDy=0;" edge="1" parent="1" source="Yz1NdHYIqoeAfp1s1f4n-17" target="Yz1NdHYIqoeAfp1s1f4n-46">
          <mxGeometry relative="1" as="geometry" />
        </mxCell>
        <mxCell id="Yz1NdHYIqoeAfp1s1f4n-102" style="edgeStyle=orthogonalEdgeStyle;rounded=0;orthogonalLoop=1;jettySize=auto;html=1;exitX=0.25;exitY=0;exitDx=0;exitDy=0;entryX=0.671;entryY=0.005;entryDx=0;entryDy=0;entryPerimeter=0;" edge="1" parent="1" source="Yz1NdHYIqoeAfp1s1f4n-46" target="Yz1NdHYIqoeAfp1s1f4n-12">
          <mxGeometry relative="1" as="geometry" />
        </mxCell>
        <mxCell id="Yz1NdHYIqoeAfp1s1f4n-103" style="edgeStyle=orthogonalEdgeStyle;rounded=0;orthogonalLoop=1;jettySize=auto;html=1;exitX=0.25;exitY=0;exitDx=0;exitDy=0;entryX=0.662;entryY=0.003;entryDx=0;entryDy=0;entryPerimeter=0;" edge="1" parent="1" source="Yz1NdHYIqoeAfp1s1f4n-12" target="Yz1NdHYIqoeAfp1s1f4n-43">
          <mxGeometry relative="1" as="geometry" />
        </mxCell>
        <mxCell id="Yz1NdHYIqoeAfp1s1f4n-104" style="edgeStyle=orthogonalEdgeStyle;rounded=0;orthogonalLoop=1;jettySize=auto;html=1;exitX=0.25;exitY=0;exitDx=0;exitDy=0;entryX=0.623;entryY=-0.012;entryDx=0;entryDy=0;entryPerimeter=0;" edge="1" parent="1" source="Yz1NdHYIqoeAfp1s1f4n-43" target="Yz1NdHYIqoeAfp1s1f4n-40">
          <mxGeometry relative="1" as="geometry" />
        </mxCell>
        <mxCell id="Yz1NdHYIqoeAfp1s1f4n-105" style="edgeStyle=orthogonalEdgeStyle;rounded=0;orthogonalLoop=1;jettySize=auto;html=1;exitX=0.25;exitY=0;exitDx=0;exitDy=0;entryX=0.75;entryY=0;entryDx=0;entryDy=0;" edge="1" parent="1" source="Yz1NdHYIqoeAfp1s1f4n-40" target="Yz1NdHYIqoeAfp1s1f4n-9">
          <mxGeometry relative="1" as="geometry" />
        </mxCell>
        <mxCell id="Yz1NdHYIqoeAfp1s1f4n-106" style="edgeStyle=orthogonalEdgeStyle;rounded=0;orthogonalLoop=1;jettySize=auto;html=1;exitX=0.25;exitY=0;exitDx=0;exitDy=0;entryX=0.75;entryY=0;entryDx=0;entryDy=0;" edge="1" parent="1" source="Yz1NdHYIqoeAfp1s1f4n-9" target="Yz1NdHYIqoeAfp1s1f4n-37">
          <mxGeometry relative="1" as="geometry" />
        </mxCell>
        <mxCell id="Yz1NdHYIqoeAfp1s1f4n-107" style="edgeStyle=orthogonalEdgeStyle;rounded=0;orthogonalLoop=1;jettySize=auto;html=1;exitX=0.25;exitY=0;exitDx=0;exitDy=0;entryX=0.75;entryY=0;entryDx=0;entryDy=0;" edge="1" parent="1" source="Yz1NdHYIqoeAfp1s1f4n-37" target="Yz1NdHYIqoeAfp1s1f4n-34">
          <mxGeometry relative="1" as="geometry" />
        </mxCell>
        <mxCell id="Yz1NdHYIqoeAfp1s1f4n-108" style="edgeStyle=orthogonalEdgeStyle;rounded=0;orthogonalLoop=1;jettySize=auto;html=1;exitX=0.25;exitY=0;exitDx=0;exitDy=0;entryX=0.75;entryY=0;entryDx=0;entryDy=0;" edge="1" parent="1" source="Yz1NdHYIqoeAfp1s1f4n-34" target="Yz1NdHYIqoeAfp1s1f4n-6">
          <mxGeometry relative="1" as="geometry" />
        </mxCell>
        <mxCell id="Yz1NdHYIqoeAfp1s1f4n-109" style="edgeStyle=orthogonalEdgeStyle;rounded=0;orthogonalLoop=1;jettySize=auto;html=1;exitX=0.25;exitY=0;exitDx=0;exitDy=0;entryX=0.75;entryY=0;entryDx=0;entryDy=0;" edge="1" parent="1" source="Yz1NdHYIqoeAfp1s1f4n-6" target="Yz1NdHYIqoeAfp1s1f4n-31">
          <mxGeometry relative="1" as="geometry" />
        </mxCell>
        <mxCell id="Yz1NdHYIqoeAfp1s1f4n-110" style="edgeStyle=orthogonalEdgeStyle;rounded=0;orthogonalLoop=1;jettySize=auto;html=1;exitX=0.25;exitY=0;exitDx=0;exitDy=0;entryX=0.75;entryY=0;entryDx=0;entryDy=0;" edge="1" parent="1" source="Yz1NdHYIqoeAfp1s1f4n-31" target="Yz1NdHYIqoeAfp1s1f4n-28">
          <mxGeometry relative="1" as="geometry" />
        </mxCell>
        <mxCell id="Yz1NdHYIqoeAfp1s1f4n-111" style="edgeStyle=orthogonalEdgeStyle;rounded=0;orthogonalLoop=1;jettySize=auto;html=1;exitX=0.25;exitY=0;exitDx=0;exitDy=0;entryX=0.75;entryY=0;entryDx=0;entryDy=0;" edge="1" parent="1" source="Yz1NdHYIqoeAfp1s1f4n-28" target="Yz1NdHYIqoeAfp1s1f4n-3">
          <mxGeometry relative="1" as="geometry" />
        </mxCell>
        <mxCell id="Yz1NdHYIqoeAfp1s1f4n-112" style="edgeStyle=orthogonalEdgeStyle;rounded=0;orthogonalLoop=1;jettySize=auto;html=1;exitX=0.25;exitY=0;exitDx=0;exitDy=0;entryX=0.75;entryY=0;entryDx=0;entryDy=0;" edge="1" parent="1" source="Yz1NdHYIqoeAfp1s1f4n-3" target="Yz1NdHYIqoeAfp1s1f4n-24">
          <mxGeometry relative="1" as="geometry" />
        </mxCell>
        <mxCell id="Yz1NdHYIqoeAfp1s1f4n-113" style="edgeStyle=orthogonalEdgeStyle;rounded=0;orthogonalLoop=1;jettySize=auto;html=1;exitX=0.25;exitY=0;exitDx=0;exitDy=0;entryX=0.75;entryY=0;entryDx=0;entryDy=0;" edge="1" parent="1" source="Yz1NdHYIqoeAfp1s1f4n-24" target="Yz1NdHYIqoeAfp1s1f4n-13">
          <mxGeometry relative="1" as="geometry" />
        </mxCell>
        <mxCell id="Yz1NdHYIqoeAfp1s1f4n-114" style="edgeStyle=orthogonalEdgeStyle;rounded=0;orthogonalLoop=1;jettySize=auto;html=1;entryX=0.75;entryY=0;entryDx=0;entryDy=0;exitX=0;exitY=0.75;exitDx=0;exitDy=0;" edge="1" parent="1" source="Yz1NdHYIqoeAfp1s1f4n-191" target="DsIkFXhPZ1wWTQOzJaBZ-73">
          <mxGeometry relative="1" as="geometry">
            <mxPoint x="2114" y="918" as="sourcePoint" />
            <Array as="points">
              <mxPoint x="1807" y="833" />
            </Array>
          </mxGeometry>
        </mxCell>
        <mxCell id="Yz1NdHYIqoeAfp1s1f4n-116" style="edgeStyle=orthogonalEdgeStyle;rounded=0;orthogonalLoop=1;jettySize=auto;html=1;exitX=0.25;exitY=0;exitDx=0;exitDy=0;entryX=0.75;entryY=0;entryDx=0;entryDy=0;" edge="1" parent="1" source="DsIkFXhPZ1wWTQOzJaBZ-73" target="DsIkFXhPZ1wWTQOzJaBZ-70">
          <mxGeometry relative="1" as="geometry" />
        </mxCell>
        <mxCell id="Yz1NdHYIqoeAfp1s1f4n-119" style="edgeStyle=orthogonalEdgeStyle;rounded=0;orthogonalLoop=1;jettySize=auto;html=1;entryX=0.75;entryY=0;entryDx=0;entryDy=0;exitX=0;exitY=0.5;exitDx=0;exitDy=0;" edge="1" parent="1" source="Yz1NdHYIqoeAfp1s1f4n-191" target="DsIkFXhPZ1wWTQOzJaBZ-49">
          <mxGeometry relative="1" as="geometry">
            <mxPoint x="2094" y="900" as="sourcePoint" />
            <mxPoint x="1020" y="1090" as="targetPoint" />
            <Array as="points">
              <mxPoint x="1023" y="810" />
            </Array>
          </mxGeometry>
        </mxCell>
        <mxCell id="Yz1NdHYIqoeAfp1s1f4n-120" style="edgeStyle=orthogonalEdgeStyle;rounded=0;orthogonalLoop=1;jettySize=auto;html=1;entryX=0.75;entryY=1;entryDx=0;entryDy=0;exitX=0;exitY=1;exitDx=0;exitDy=0;" edge="1" parent="1" source="Yz1NdHYIqoeAfp1s1f4n-191" target="DsIkFXhPZ1wWTQOzJaBZ-25">
          <mxGeometry relative="1" as="geometry">
            <mxPoint x="2054" y="904" as="sourcePoint" />
            <mxPoint x="1918" y="1164" as="targetPoint" />
            <Array as="points">
              <mxPoint x="1876" y="856" />
              <mxPoint x="1876" y="1407" />
              <mxPoint x="1747" y="1407" />
            </Array>
          </mxGeometry>
        </mxCell>
        <mxCell id="Yz1NdHYIqoeAfp1s1f4n-121" style="edgeStyle=orthogonalEdgeStyle;rounded=0;orthogonalLoop=1;jettySize=auto;html=1;exitX=0.25;exitY=1;exitDx=0;exitDy=0;entryX=0.75;entryY=1;entryDx=0;entryDy=0;" edge="1" parent="1" source="DsIkFXhPZ1wWTQOzJaBZ-25" target="DsIkFXhPZ1wWTQOzJaBZ-22">
          <mxGeometry relative="1" as="geometry" />
        </mxCell>
        <mxCell id="Yz1NdHYIqoeAfp1s1f4n-122" style="edgeStyle=orthogonalEdgeStyle;rounded=0;orthogonalLoop=1;jettySize=auto;html=1;exitX=0.25;exitY=1;exitDx=0;exitDy=0;entryX=0.75;entryY=1;entryDx=0;entryDy=0;" edge="1" parent="1" source="DsIkFXhPZ1wWTQOzJaBZ-22" target="DsIkFXhPZ1wWTQOzJaBZ-19">
          <mxGeometry relative="1" as="geometry" />
        </mxCell>
        <mxCell id="Yz1NdHYIqoeAfp1s1f4n-123" style="edgeStyle=orthogonalEdgeStyle;rounded=0;orthogonalLoop=1;jettySize=auto;html=1;exitX=0.25;exitY=1;exitDx=0;exitDy=0;entryX=0.75;entryY=1;entryDx=0;entryDy=0;" edge="1" parent="1" source="DsIkFXhPZ1wWTQOzJaBZ-19" target="DsIkFXhPZ1wWTQOzJaBZ-16">
          <mxGeometry relative="1" as="geometry" />
        </mxCell>
        <mxCell id="Yz1NdHYIqoeAfp1s1f4n-124" style="edgeStyle=orthogonalEdgeStyle;rounded=0;orthogonalLoop=1;jettySize=auto;html=1;exitX=0.25;exitY=1;exitDx=0;exitDy=0;entryX=0.75;entryY=1;entryDx=0;entryDy=0;" edge="1" parent="1" source="DsIkFXhPZ1wWTQOzJaBZ-16" target="DsIkFXhPZ1wWTQOzJaBZ-13">
          <mxGeometry relative="1" as="geometry" />
        </mxCell>
        <mxCell id="Yz1NdHYIqoeAfp1s1f4n-125" style="edgeStyle=orthogonalEdgeStyle;rounded=0;orthogonalLoop=1;jettySize=auto;html=1;exitX=0.25;exitY=1;exitDx=0;exitDy=0;entryX=0.75;entryY=1;entryDx=0;entryDy=0;" edge="1" parent="1" source="DsIkFXhPZ1wWTQOzJaBZ-13" target="DsIkFXhPZ1wWTQOzJaBZ-8">
          <mxGeometry relative="1" as="geometry" />
        </mxCell>
        <mxCell id="Yz1NdHYIqoeAfp1s1f4n-127" style="edgeStyle=orthogonalEdgeStyle;rounded=0;orthogonalLoop=1;jettySize=auto;html=1;exitX=0.25;exitY=0;exitDx=0;exitDy=0;entryX=0.75;entryY=0;entryDx=0;entryDy=0;" edge="1" parent="1" source="DsIkFXhPZ1wWTQOzJaBZ-70" target="DsIkFXhPZ1wWTQOzJaBZ-67">
          <mxGeometry relative="1" as="geometry" />
        </mxCell>
        <mxCell id="Yz1NdHYIqoeAfp1s1f4n-128" style="edgeStyle=orthogonalEdgeStyle;rounded=0;orthogonalLoop=1;jettySize=auto;html=1;exitX=0.25;exitY=0;exitDx=0;exitDy=0;entryX=0.75;entryY=0;entryDx=0;entryDy=0;" edge="1" parent="1" source="DsIkFXhPZ1wWTQOzJaBZ-67" target="DsIkFXhPZ1wWTQOzJaBZ-64">
          <mxGeometry relative="1" as="geometry" />
        </mxCell>
        <mxCell id="Yz1NdHYIqoeAfp1s1f4n-129" style="edgeStyle=orthogonalEdgeStyle;rounded=0;orthogonalLoop=1;jettySize=auto;html=1;exitX=0.25;exitY=0;exitDx=0;exitDy=0;entryX=0.75;entryY=0;entryDx=0;entryDy=0;" edge="1" parent="1" source="DsIkFXhPZ1wWTQOzJaBZ-64" target="DsIkFXhPZ1wWTQOzJaBZ-61">
          <mxGeometry relative="1" as="geometry" />
        </mxCell>
        <mxCell id="Yz1NdHYIqoeAfp1s1f4n-130" style="edgeStyle=orthogonalEdgeStyle;rounded=0;orthogonalLoop=1;jettySize=auto;html=1;exitX=0.25;exitY=0;exitDx=0;exitDy=0;entryX=0.75;entryY=0;entryDx=0;entryDy=0;" edge="1" parent="1" source="DsIkFXhPZ1wWTQOzJaBZ-61" target="DsIkFXhPZ1wWTQOzJaBZ-58">
          <mxGeometry relative="1" as="geometry" />
        </mxCell>
        <mxCell id="Yz1NdHYIqoeAfp1s1f4n-131" style="edgeStyle=orthogonalEdgeStyle;rounded=0;orthogonalLoop=1;jettySize=auto;html=1;exitX=0.25;exitY=0;exitDx=0;exitDy=0;entryX=0.75;entryY=0;entryDx=0;entryDy=0;" edge="1" parent="1" source="DsIkFXhPZ1wWTQOzJaBZ-58" target="DsIkFXhPZ1wWTQOzJaBZ-55">
          <mxGeometry relative="1" as="geometry" />
        </mxCell>
        <mxCell id="Yz1NdHYIqoeAfp1s1f4n-132" style="edgeStyle=orthogonalEdgeStyle;rounded=0;orthogonalLoop=1;jettySize=auto;html=1;exitX=0.25;exitY=0;exitDx=0;exitDy=0;entryX=0.75;entryY=0;entryDx=0;entryDy=0;" edge="1" parent="1" source="DsIkFXhPZ1wWTQOzJaBZ-55" target="DsIkFXhPZ1wWTQOzJaBZ-52">
          <mxGeometry relative="1" as="geometry" />
        </mxCell>
        <mxCell id="Yz1NdHYIqoeAfp1s1f4n-133" style="edgeStyle=orthogonalEdgeStyle;rounded=0;orthogonalLoop=1;jettySize=auto;html=1;exitX=0.25;exitY=0;exitDx=0;exitDy=0;entryX=0.75;entryY=0;entryDx=0;entryDy=0;" edge="1" parent="1" source="DsIkFXhPZ1wWTQOzJaBZ-49" target="DsIkFXhPZ1wWTQOzJaBZ-46">
          <mxGeometry relative="1" as="geometry" />
        </mxCell>
        <mxCell id="Yz1NdHYIqoeAfp1s1f4n-134" style="edgeStyle=orthogonalEdgeStyle;rounded=0;orthogonalLoop=1;jettySize=auto;html=1;exitX=0.25;exitY=0;exitDx=0;exitDy=0;entryX=0.75;entryY=0;entryDx=0;entryDy=0;" edge="1" parent="1" source="DsIkFXhPZ1wWTQOzJaBZ-46" target="DsIkFXhPZ1wWTQOzJaBZ-43">
          <mxGeometry relative="1" as="geometry" />
        </mxCell>
        <mxCell id="Yz1NdHYIqoeAfp1s1f4n-135" style="edgeStyle=orthogonalEdgeStyle;rounded=0;orthogonalLoop=1;jettySize=auto;html=1;exitX=0.25;exitY=0;exitDx=0;exitDy=0;entryX=0.75;entryY=0;entryDx=0;entryDy=0;" edge="1" parent="1" source="DsIkFXhPZ1wWTQOzJaBZ-43" target="DsIkFXhPZ1wWTQOzJaBZ-40">
          <mxGeometry relative="1" as="geometry" />
        </mxCell>
        <mxCell id="Yz1NdHYIqoeAfp1s1f4n-136" style="edgeStyle=orthogonalEdgeStyle;rounded=0;orthogonalLoop=1;jettySize=auto;html=1;exitX=0.25;exitY=0;exitDx=0;exitDy=0;entryX=0.75;entryY=0;entryDx=0;entryDy=0;" edge="1" parent="1" source="DsIkFXhPZ1wWTQOzJaBZ-40" target="DsIkFXhPZ1wWTQOzJaBZ-37">
          <mxGeometry relative="1" as="geometry" />
        </mxCell>
        <mxCell id="Yz1NdHYIqoeAfp1s1f4n-137" style="edgeStyle=orthogonalEdgeStyle;rounded=0;orthogonalLoop=1;jettySize=auto;html=1;exitX=0.25;exitY=0;exitDx=0;exitDy=0;entryX=0.75;entryY=0;entryDx=0;entryDy=0;" edge="1" parent="1" source="DsIkFXhPZ1wWTQOzJaBZ-37" target="DsIkFXhPZ1wWTQOzJaBZ-34">
          <mxGeometry relative="1" as="geometry" />
        </mxCell>
        <mxCell id="Yz1NdHYIqoeAfp1s1f4n-138" style="edgeStyle=orthogonalEdgeStyle;rounded=0;orthogonalLoop=1;jettySize=auto;html=1;exitX=0.25;exitY=0;exitDx=0;exitDy=0;entryX=0.75;entryY=0;entryDx=0;entryDy=0;" edge="1" parent="1" source="DsIkFXhPZ1wWTQOzJaBZ-34" target="DsIkFXhPZ1wWTQOzJaBZ-31">
          <mxGeometry relative="1" as="geometry" />
        </mxCell>
        <mxCell id="Yz1NdHYIqoeAfp1s1f4n-139" style="edgeStyle=orthogonalEdgeStyle;rounded=0;orthogonalLoop=1;jettySize=auto;html=1;exitX=0.25;exitY=0;exitDx=0;exitDy=0;entryX=0.75;entryY=0;entryDx=0;entryDy=0;" edge="1" parent="1" source="DsIkFXhPZ1wWTQOzJaBZ-31" target="DsIkFXhPZ1wWTQOzJaBZ-27">
          <mxGeometry relative="1" as="geometry" />
        </mxCell>
        <mxCell id="Yz1NdHYIqoeAfp1s1f4n-140" style="edgeStyle=orthogonalEdgeStyle;rounded=0;orthogonalLoop=1;jettySize=auto;html=1;entryX=0.75;entryY=1;entryDx=0;entryDy=0;exitX=0;exitY=0.25;exitDx=0;exitDy=0;" edge="1" parent="1" source="Yz1NdHYIqoeAfp1s1f4n-190" target="DsIkFXhPZ1wWTQOzJaBZ-99">
          <mxGeometry relative="1" as="geometry">
            <mxPoint x="2136" y="692" as="sourcePoint" />
            <Array as="points">
              <mxPoint x="1756" y="621" />
            </Array>
          </mxGeometry>
        </mxCell>
        <mxCell id="Yz1NdHYIqoeAfp1s1f4n-141" style="edgeStyle=orthogonalEdgeStyle;rounded=0;orthogonalLoop=1;jettySize=auto;html=1;exitX=0.25;exitY=1;exitDx=0;exitDy=0;entryX=0.75;entryY=1;entryDx=0;entryDy=0;" edge="1" parent="1" source="DsIkFXhPZ1wWTQOzJaBZ-99" target="DsIkFXhPZ1wWTQOzJaBZ-131">
          <mxGeometry relative="1" as="geometry">
            <Array as="points">
              <mxPoint x="1723" y="602" />
              <mxPoint x="1688" y="602" />
            </Array>
          </mxGeometry>
        </mxCell>
        <mxCell id="Yz1NdHYIqoeAfp1s1f4n-142" style="edgeStyle=orthogonalEdgeStyle;rounded=0;orthogonalLoop=1;jettySize=auto;html=1;exitX=0.25;exitY=1;exitDx=0;exitDy=0;entryX=0.697;entryY=1.011;entryDx=0;entryDy=0;entryPerimeter=0;" edge="1" parent="1" source="DsIkFXhPZ1wWTQOzJaBZ-131" target="DsIkFXhPZ1wWTQOzJaBZ-93">
          <mxGeometry relative="1" as="geometry" />
        </mxCell>
        <mxCell id="Yz1NdHYIqoeAfp1s1f4n-143" style="edgeStyle=orthogonalEdgeStyle;rounded=0;orthogonalLoop=1;jettySize=auto;html=1;exitX=0.25;exitY=1;exitDx=0;exitDy=0;entryX=0.75;entryY=1;entryDx=0;entryDy=0;" edge="1" parent="1" source="DsIkFXhPZ1wWTQOzJaBZ-93" target="DsIkFXhPZ1wWTQOzJaBZ-121">
          <mxGeometry relative="1" as="geometry">
            <Array as="points">
              <mxPoint x="1514" y="605" />
              <mxPoint x="1481" y="605" />
            </Array>
          </mxGeometry>
        </mxCell>
        <mxCell id="Yz1NdHYIqoeAfp1s1f4n-144" style="edgeStyle=orthogonalEdgeStyle;rounded=0;orthogonalLoop=1;jettySize=auto;html=1;exitX=0.25;exitY=1;exitDx=0;exitDy=0;entryX=0.75;entryY=1;entryDx=0;entryDy=0;" edge="1" parent="1" source="DsIkFXhPZ1wWTQOzJaBZ-121" target="DsIkFXhPZ1wWTQOzJaBZ-124">
          <mxGeometry relative="1" as="geometry" />
        </mxCell>
        <mxCell id="Yz1NdHYIqoeAfp1s1f4n-145" style="edgeStyle=orthogonalEdgeStyle;rounded=0;orthogonalLoop=1;jettySize=auto;html=1;exitX=0.25;exitY=1;exitDx=0;exitDy=0;entryX=0.75;entryY=1;entryDx=0;entryDy=0;" edge="1" parent="1" source="DsIkFXhPZ1wWTQOzJaBZ-124" target="DsIkFXhPZ1wWTQOzJaBZ-90">
          <mxGeometry relative="1" as="geometry">
            <Array as="points">
              <mxPoint x="1277" y="603" />
              <mxPoint x="1245" y="603" />
            </Array>
          </mxGeometry>
        </mxCell>
        <mxCell id="Yz1NdHYIqoeAfp1s1f4n-146" style="edgeStyle=orthogonalEdgeStyle;rounded=0;orthogonalLoop=1;jettySize=auto;html=1;entryX=0.75;entryY=1;entryDx=0;entryDy=0;exitX=0;exitY=0;exitDx=0;exitDy=0;" edge="1" parent="1" source="Yz1NdHYIqoeAfp1s1f4n-191" target="DsIkFXhPZ1wWTQOzJaBZ-115">
          <mxGeometry relative="1" as="geometry">
            <mxPoint x="2124" y="850" as="sourcePoint" />
            <mxPoint x="1130" y="596" as="targetPoint" />
            <Array as="points">
              <mxPoint x="1127" y="764" />
            </Array>
          </mxGeometry>
        </mxCell>
        <mxCell id="Yz1NdHYIqoeAfp1s1f4n-147" style="edgeStyle=orthogonalEdgeStyle;rounded=0;orthogonalLoop=1;jettySize=auto;html=1;exitX=0.25;exitY=1;exitDx=0;exitDy=0;entryX=0.75;entryY=1;entryDx=0;entryDy=0;" edge="1" parent="1" source="DsIkFXhPZ1wWTQOzJaBZ-115" target="DsIkFXhPZ1wWTQOzJaBZ-114">
          <mxGeometry relative="1" as="geometry" />
        </mxCell>
        <mxCell id="Yz1NdHYIqoeAfp1s1f4n-148" style="edgeStyle=orthogonalEdgeStyle;rounded=0;orthogonalLoop=1;jettySize=auto;html=1;entryX=0.75;entryY=1;entryDx=0;entryDy=0;exitX=0;exitY=0.5;exitDx=0;exitDy=0;" edge="1" parent="1" source="Yz1NdHYIqoeAfp1s1f4n-190" target="DsIkFXhPZ1wWTQOzJaBZ-87">
          <mxGeometry relative="1" as="geometry">
            <mxPoint x="2073" y="772.5999999999999" as="sourcePoint" />
            <mxPoint x="1093" y="659" as="targetPoint" />
            <Array as="points">
              <mxPoint x="902" y="644" />
            </Array>
          </mxGeometry>
        </mxCell>
        <mxCell id="Yz1NdHYIqoeAfp1s1f4n-149" style="edgeStyle=orthogonalEdgeStyle;rounded=0;orthogonalLoop=1;jettySize=auto;html=1;exitX=0.25;exitY=1;exitDx=0;exitDy=0;entryX=0.75;entryY=1;entryDx=0;entryDy=0;" edge="1" parent="1" source="DsIkFXhPZ1wWTQOzJaBZ-87" target="DsIkFXhPZ1wWTQOzJaBZ-111">
          <mxGeometry relative="1" as="geometry">
            <Array as="points">
              <mxPoint x="869" y="601" />
              <mxPoint x="833" y="601" />
            </Array>
          </mxGeometry>
        </mxCell>
        <mxCell id="Yz1NdHYIqoeAfp1s1f4n-150" style="edgeStyle=orthogonalEdgeStyle;rounded=0;orthogonalLoop=1;jettySize=auto;html=1;exitX=0.25;exitY=1;exitDx=0;exitDy=0;entryX=0.75;entryY=1;entryDx=0;entryDy=0;" edge="1" parent="1" source="DsIkFXhPZ1wWTQOzJaBZ-111" target="DsIkFXhPZ1wWTQOzJaBZ-108">
          <mxGeometry relative="1" as="geometry" />
        </mxCell>
        <mxCell id="Yz1NdHYIqoeAfp1s1f4n-152" style="edgeStyle=orthogonalEdgeStyle;rounded=0;orthogonalLoop=1;jettySize=auto;html=1;exitX=0.25;exitY=1;exitDx=0;exitDy=0;entryX=0.75;entryY=1;entryDx=0;entryDy=0;" edge="1" parent="1" source="DsIkFXhPZ1wWTQOzJaBZ-108" target="DsIkFXhPZ1wWTQOzJaBZ-84">
          <mxGeometry relative="1" as="geometry">
            <Array as="points">
              <mxPoint x="648" y="603" />
              <mxPoint x="613" y="603" />
            </Array>
          </mxGeometry>
        </mxCell>
        <mxCell id="Yz1NdHYIqoeAfp1s1f4n-153" style="edgeStyle=orthogonalEdgeStyle;rounded=0;orthogonalLoop=1;jettySize=auto;html=1;exitX=0.25;exitY=1;exitDx=0;exitDy=0;entryX=0.75;entryY=1;entryDx=0;entryDy=0;" edge="1" parent="1" source="DsIkFXhPZ1wWTQOzJaBZ-84" target="DsIkFXhPZ1wWTQOzJaBZ-104">
          <mxGeometry relative="1" as="geometry" />
        </mxCell>
        <mxCell id="Yz1NdHYIqoeAfp1s1f4n-154" style="edgeStyle=orthogonalEdgeStyle;rounded=0;orthogonalLoop=1;jettySize=auto;html=1;exitX=0.25;exitY=1;exitDx=0;exitDy=0;entryX=0.75;entryY=1;entryDx=0;entryDy=0;" edge="1" parent="1" source="DsIkFXhPZ1wWTQOzJaBZ-104" target="DsIkFXhPZ1wWTQOzJaBZ-80">
          <mxGeometry relative="1" as="geometry" />
        </mxCell>
        <mxCell id="Yz1NdHYIqoeAfp1s1f4n-155" style="edgeStyle=orthogonalEdgeStyle;rounded=0;orthogonalLoop=1;jettySize=auto;html=1;entryX=0.75;entryY=0;entryDx=0;entryDy=0;exitX=0;exitY=0;exitDx=0;exitDy=0;" edge="1" parent="1" source="Yz1NdHYIqoeAfp1s1f4n-190" target="DsIkFXhPZ1wWTQOzJaBZ-155">
          <mxGeometry relative="1" as="geometry">
            <mxPoint x="2073" y="644" as="sourcePoint" />
            <mxPoint x="1873" y="441" as="targetPoint" />
            <Array as="points">
              <mxPoint x="1853" y="598" />
              <mxPoint x="1853" y="291" />
              <mxPoint x="1775" y="291" />
            </Array>
          </mxGeometry>
        </mxCell>
        <mxCell id="Yz1NdHYIqoeAfp1s1f4n-156" style="edgeStyle=orthogonalEdgeStyle;rounded=0;orthogonalLoop=1;jettySize=auto;html=1;exitX=0.25;exitY=0;exitDx=0;exitDy=0;entryX=0.75;entryY=0;entryDx=0;entryDy=0;" edge="1" parent="1" source="DsIkFXhPZ1wWTQOzJaBZ-155" target="DsIkFXhPZ1wWTQOzJaBZ-152">
          <mxGeometry relative="1" as="geometry" />
        </mxCell>
        <mxCell id="Yz1NdHYIqoeAfp1s1f4n-157" style="edgeStyle=orthogonalEdgeStyle;rounded=0;orthogonalLoop=1;jettySize=auto;html=1;exitX=0.25;exitY=0;exitDx=0;exitDy=0;entryX=0.75;entryY=0;entryDx=0;entryDy=0;" edge="1" parent="1" source="DsIkFXhPZ1wWTQOzJaBZ-152" target="DsIkFXhPZ1wWTQOzJaBZ-149">
          <mxGeometry relative="1" as="geometry" />
        </mxCell>
        <mxCell id="Yz1NdHYIqoeAfp1s1f4n-158" style="edgeStyle=orthogonalEdgeStyle;rounded=0;orthogonalLoop=1;jettySize=auto;html=1;exitX=0.25;exitY=0;exitDx=0;exitDy=0;entryX=0.75;entryY=0;entryDx=0;entryDy=0;" edge="1" parent="1" source="DsIkFXhPZ1wWTQOzJaBZ-149" target="DsIkFXhPZ1wWTQOzJaBZ-143">
          <mxGeometry relative="1" as="geometry" />
        </mxCell>
        <mxCell id="Yz1NdHYIqoeAfp1s1f4n-159" style="edgeStyle=orthogonalEdgeStyle;rounded=0;orthogonalLoop=1;jettySize=auto;html=1;exitX=0.25;exitY=0;exitDx=0;exitDy=0;entryX=0.75;entryY=0;entryDx=0;entryDy=0;" edge="1" parent="1" source="DsIkFXhPZ1wWTQOzJaBZ-143" target="DsIkFXhPZ1wWTQOzJaBZ-146">
          <mxGeometry relative="1" as="geometry" />
        </mxCell>
        <mxCell id="Yz1NdHYIqoeAfp1s1f4n-160" style="edgeStyle=orthogonalEdgeStyle;rounded=0;orthogonalLoop=1;jettySize=auto;html=1;exitX=0.25;exitY=0;exitDx=0;exitDy=0;entryX=0.75;entryY=0;entryDx=0;entryDy=0;" edge="1" parent="1" source="DsIkFXhPZ1wWTQOzJaBZ-146" target="DsIkFXhPZ1wWTQOzJaBZ-140">
          <mxGeometry relative="1" as="geometry" />
        </mxCell>
        <mxCell id="Yz1NdHYIqoeAfp1s1f4n-161" style="edgeStyle=orthogonalEdgeStyle;rounded=0;orthogonalLoop=1;jettySize=auto;html=1;exitX=0.25;exitY=0;exitDx=0;exitDy=0;entryX=0.75;entryY=0;entryDx=0;entryDy=0;" edge="1" parent="1" source="DsIkFXhPZ1wWTQOzJaBZ-140" target="DsIkFXhPZ1wWTQOzJaBZ-137">
          <mxGeometry relative="1" as="geometry" />
        </mxCell>
        <mxCell id="Yz1NdHYIqoeAfp1s1f4n-162" style="edgeStyle=orthogonalEdgeStyle;rounded=0;orthogonalLoop=1;jettySize=auto;html=1;exitX=0.25;exitY=0;exitDx=0;exitDy=0;entryX=0.75;entryY=0;entryDx=0;entryDy=0;" edge="1" parent="1" source="DsIkFXhPZ1wWTQOzJaBZ-137" target="DsIkFXhPZ1wWTQOzJaBZ-133">
          <mxGeometry relative="1" as="geometry" />
        </mxCell>
        <mxCell id="Yz1NdHYIqoeAfp1s1f4n-167" style="edgeStyle=orthogonalEdgeStyle;rounded=0;orthogonalLoop=1;jettySize=auto;html=1;exitX=1;exitY=0.5;exitDx=0;exitDy=0;entryX=0;entryY=0.5;entryDx=0;entryDy=0;strokeWidth=3;" edge="1" parent="1" source="Yz1NdHYIqoeAfp1s1f4n-163" target="DsIkFXhPZ1wWTQOzJaBZ-7">
          <mxGeometry relative="1" as="geometry">
            <Array as="points">
              <mxPoint y="1113" />
              <mxPoint y="1306" />
            </Array>
          </mxGeometry>
        </mxCell>
        <mxCell id="Yz1NdHYIqoeAfp1s1f4n-170" style="edgeStyle=orthogonalEdgeStyle;rounded=0;orthogonalLoop=1;jettySize=auto;html=1;exitX=1;exitY=0.5;exitDx=0;exitDy=0;entryX=0;entryY=0.5;entryDx=0;entryDy=0;strokeWidth=3;" edge="1" parent="1" source="Yz1NdHYIqoeAfp1s1f4n-163" target="DsIkFXhPZ1wWTQOzJaBZ-18">
          <mxGeometry relative="1" as="geometry">
            <Array as="points">
              <mxPoint x="2" y="1113" />
              <mxPoint x="2" y="1433" />
              <mxPoint x="1075" y="1433" />
              <mxPoint x="1075" y="1306" />
            </Array>
          </mxGeometry>
        </mxCell>
        <mxCell id="Yz1NdHYIqoeAfp1s1f4n-173" style="edgeStyle=orthogonalEdgeStyle;rounded=0;orthogonalLoop=1;jettySize=auto;html=1;exitX=1;exitY=0.5;exitDx=0;exitDy=0;entryX=0;entryY=0.5;entryDx=0;entryDy=0;strokeWidth=3;" edge="1" parent="1" source="Yz1NdHYIqoeAfp1s1f4n-163" target="DsIkFXhPZ1wWTQOzJaBZ-26">
          <mxGeometry relative="1" as="geometry">
            <Array as="points">
              <mxPoint x="253" y="1113" />
              <mxPoint x="253" y="1245" />
            </Array>
          </mxGeometry>
        </mxCell>
        <mxCell id="Yz1NdHYIqoeAfp1s1f4n-187" style="edgeStyle=orthogonalEdgeStyle;rounded=0;orthogonalLoop=1;jettySize=auto;html=1;exitX=1;exitY=0.5;exitDx=0;exitDy=0;entryX=0;entryY=0.5;entryDx=0;entryDy=0;strokeWidth=3;" edge="1" parent="1" source="Yz1NdHYIqoeAfp1s1f4n-163" target="DsIkFXhPZ1wWTQOzJaBZ-45">
          <mxGeometry relative="1" as="geometry">
            <Array as="points">
              <mxPoint x="855" y="1113" />
              <mxPoint x="855" y="1245" />
            </Array>
          </mxGeometry>
        </mxCell>
        <mxCell id="Yz1NdHYIqoeAfp1s1f4n-188" style="edgeStyle=orthogonalEdgeStyle;rounded=0;orthogonalLoop=1;jettySize=auto;html=1;exitX=1;exitY=0.5;exitDx=0;exitDy=0;entryX=0;entryY=0.5;entryDx=0;entryDy=0;strokeWidth=3;" edge="1" parent="1" source="Yz1NdHYIqoeAfp1s1f4n-163" target="DsIkFXhPZ1wWTQOzJaBZ-60">
          <mxGeometry relative="1" as="geometry">
            <Array as="points">
              <mxPoint x="1348" y="1113" />
              <mxPoint x="1348" y="1245" />
            </Array>
          </mxGeometry>
        </mxCell>
        <mxCell id="Yz1NdHYIqoeAfp1s1f4n-194" style="edgeStyle=orthogonalEdgeStyle;rounded=0;orthogonalLoop=1;jettySize=auto;html=1;exitX=0.5;exitY=0;exitDx=0;exitDy=0;entryX=0;entryY=0.5;entryDx=0;entryDy=0;strokeWidth=3;" edge="1" parent="1" source="Yz1NdHYIqoeAfp1s1f4n-163" target="Yz1NdHYIqoeAfp1s1f4n-13">
          <mxGeometry relative="1" as="geometry" />
        </mxCell>
        <mxCell id="Yz1NdHYIqoeAfp1s1f4n-196" style="edgeStyle=orthogonalEdgeStyle;rounded=0;orthogonalLoop=1;jettySize=auto;html=1;exitX=0.5;exitY=0;exitDx=0;exitDy=0;entryX=0;entryY=0.5;entryDx=0;entryDy=0;strokeWidth=3;" edge="1" parent="1" source="Yz1NdHYIqoeAfp1s1f4n-163" target="DsIkFXhPZ1wWTQOzJaBZ-132">
          <mxGeometry relative="1" as="geometry">
            <Array as="points">
              <mxPoint x="-449" y="284" />
              <mxPoint x="290" y="284" />
              <mxPoint x="290" y="417" />
            </Array>
          </mxGeometry>
        </mxCell>
        <mxCell id="Yz1NdHYIqoeAfp1s1f4n-198" style="edgeStyle=orthogonalEdgeStyle;rounded=0;orthogonalLoop=1;jettySize=auto;html=1;exitX=0.5;exitY=0;exitDx=0;exitDy=0;entryX=0;entryY=0.5;entryDx=0;entryDy=0;strokeWidth=3;" edge="1" parent="1" source="Yz1NdHYIqoeAfp1s1f4n-163" target="DsIkFXhPZ1wWTQOzJaBZ-139">
          <mxGeometry relative="1" as="geometry">
            <Array as="points">
              <mxPoint x="-449" y="282" />
              <mxPoint x="666" y="282" />
              <mxPoint x="666" y="417" />
            </Array>
          </mxGeometry>
        </mxCell>
        <mxCell id="Yz1NdHYIqoeAfp1s1f4n-200" style="edgeStyle=orthogonalEdgeStyle;rounded=0;orthogonalLoop=1;jettySize=auto;html=1;exitX=0.5;exitY=0;exitDx=0;exitDy=0;entryX=0;entryY=0.5;entryDx=0;entryDy=0;strokeWidth=3;" edge="1" parent="1" source="Yz1NdHYIqoeAfp1s1f4n-163" target="DsIkFXhPZ1wWTQOzJaBZ-142">
          <mxGeometry relative="1" as="geometry">
            <Array as="points">
              <mxPoint x="-449" y="282" />
              <mxPoint x="1132" y="282" />
              <mxPoint x="1132" y="417" />
            </Array>
          </mxGeometry>
        </mxCell>
        <mxCell id="Yz1NdHYIqoeAfp1s1f4n-202" style="edgeStyle=orthogonalEdgeStyle;rounded=0;orthogonalLoop=1;jettySize=auto;html=1;exitX=0.5;exitY=0;exitDx=0;exitDy=0;entryX=0;entryY=0.5;entryDx=0;entryDy=0;" edge="1" parent="1" source="Yz1NdHYIqoeAfp1s1f4n-163" target="DsIkFXhPZ1wWTQOzJaBZ-151">
          <mxGeometry relative="1" as="geometry">
            <Array as="points">
              <mxPoint x="-449" y="280" />
              <mxPoint x="1551" y="280" />
            </Array>
          </mxGeometry>
        </mxCell>
        <mxCell id="Yz1NdHYIqoeAfp1s1f4n-203" style="edgeStyle=orthogonalEdgeStyle;rounded=0;orthogonalLoop=1;jettySize=auto;html=1;exitX=0.5;exitY=0;exitDx=0;exitDy=0;entryX=0;entryY=0.5;entryDx=0;entryDy=0;strokeWidth=3;" edge="1" parent="1" source="Yz1NdHYIqoeAfp1s1f4n-163" target="DsIkFXhPZ1wWTQOzJaBZ-151">
          <mxGeometry relative="1" as="geometry">
            <Array as="points">
              <mxPoint x="-449" y="286" />
              <mxPoint x="1490" y="286" />
              <mxPoint x="1490" y="417" />
            </Array>
          </mxGeometry>
        </mxCell>
        <mxCell id="Yz1NdHYIqoeAfp1s1f4n-205" style="edgeStyle=orthogonalEdgeStyle;rounded=0;orthogonalLoop=1;jettySize=auto;html=1;exitX=0.5;exitY=0;exitDx=0;exitDy=0;entryX=0;entryY=0.5;entryDx=0;entryDy=0;strokeWidth=3;" edge="1" parent="1" source="Yz1NdHYIqoeAfp1s1f4n-163" target="DsIkFXhPZ1wWTQOzJaBZ-79">
          <mxGeometry relative="1" as="geometry" />
        </mxCell>
        <mxCell id="Yz1NdHYIqoeAfp1s1f4n-206" style="edgeStyle=orthogonalEdgeStyle;rounded=0;orthogonalLoop=1;jettySize=auto;html=1;exitX=0.5;exitY=0;exitDx=0;exitDy=0;entryX=0;entryY=0.5;entryDx=0;entryDy=0;strokeWidth=3;" edge="1" parent="1" source="Yz1NdHYIqoeAfp1s1f4n-163" target="DsIkFXhPZ1wWTQOzJaBZ-116">
          <mxGeometry relative="1" as="geometry">
            <Array as="points">
              <mxPoint x="-449" y="678" />
              <mxPoint x="1060" y="678" />
              <mxPoint x="1060" y="495" />
            </Array>
          </mxGeometry>
        </mxCell>
        <mxCell id="Yz1NdHYIqoeAfp1s1f4n-163" value="&lt;font style=&quot;font-size: 26px;&quot;&gt;Power Distro&lt;/font&gt;" style="rounded=0;whiteSpace=wrap;html=1;" vertex="1" parent="1">
          <mxGeometry x="-564" y="1002" width="230" height="225" as="geometry" />
        </mxCell>
        <mxCell id="Yz1NdHYIqoeAfp1s1f4n-168" style="edgeStyle=orthogonalEdgeStyle;rounded=0;orthogonalLoop=1;jettySize=auto;html=1;exitX=1;exitY=0.5;exitDx=0;exitDy=0;strokeWidth=3;" edge="1" parent="1" source="DsIkFXhPZ1wWTQOzJaBZ-7" target="DsIkFXhPZ1wWTQOzJaBZ-12">
          <mxGeometry relative="1" as="geometry" />
        </mxCell>
        <mxCell id="Yz1NdHYIqoeAfp1s1f4n-169" style="edgeStyle=orthogonalEdgeStyle;rounded=0;orthogonalLoop=1;jettySize=auto;html=1;exitX=1;exitY=0.5;exitDx=0;exitDy=0;entryX=0;entryY=0.5;entryDx=0;entryDy=0;strokeWidth=3;" edge="1" parent="1" source="DsIkFXhPZ1wWTQOzJaBZ-12" target="DsIkFXhPZ1wWTQOzJaBZ-15">
          <mxGeometry relative="1" as="geometry" />
        </mxCell>
        <mxCell id="Yz1NdHYIqoeAfp1s1f4n-171" style="edgeStyle=orthogonalEdgeStyle;rounded=0;orthogonalLoop=1;jettySize=auto;html=1;exitX=1;exitY=0.5;exitDx=0;exitDy=0;entryX=0;entryY=0.5;entryDx=0;entryDy=0;strokeWidth=3;" edge="1" parent="1" source="DsIkFXhPZ1wWTQOzJaBZ-18" target="DsIkFXhPZ1wWTQOzJaBZ-21">
          <mxGeometry relative="1" as="geometry" />
        </mxCell>
        <mxCell id="Yz1NdHYIqoeAfp1s1f4n-172" style="edgeStyle=orthogonalEdgeStyle;rounded=0;orthogonalLoop=1;jettySize=auto;html=1;exitX=1;exitY=0.5;exitDx=0;exitDy=0;entryX=0;entryY=0.5;entryDx=0;entryDy=0;strokeWidth=3;" edge="1" parent="1" source="DsIkFXhPZ1wWTQOzJaBZ-21" target="DsIkFXhPZ1wWTQOzJaBZ-24">
          <mxGeometry relative="1" as="geometry" />
        </mxCell>
        <mxCell id="Yz1NdHYIqoeAfp1s1f4n-174" style="edgeStyle=orthogonalEdgeStyle;rounded=0;orthogonalLoop=1;jettySize=auto;html=1;exitX=1;exitY=0.5;exitDx=0;exitDy=0;entryX=0;entryY=0.5;entryDx=0;entryDy=0;strokeWidth=3;" edge="1" parent="1" source="DsIkFXhPZ1wWTQOzJaBZ-26" target="DsIkFXhPZ1wWTQOzJaBZ-30">
          <mxGeometry relative="1" as="geometry" />
        </mxCell>
        <mxCell id="Yz1NdHYIqoeAfp1s1f4n-175" style="edgeStyle=orthogonalEdgeStyle;rounded=0;orthogonalLoop=1;jettySize=auto;html=1;exitX=1;exitY=0.5;exitDx=0;exitDy=0;entryX=0;entryY=0.5;entryDx=0;entryDy=0;strokeWidth=3;" edge="1" parent="1" source="DsIkFXhPZ1wWTQOzJaBZ-30" target="DsIkFXhPZ1wWTQOzJaBZ-33">
          <mxGeometry relative="1" as="geometry" />
        </mxCell>
        <mxCell id="Yz1NdHYIqoeAfp1s1f4n-176" style="edgeStyle=orthogonalEdgeStyle;rounded=0;orthogonalLoop=1;jettySize=auto;html=1;exitX=1;exitY=0.5;exitDx=0;exitDy=0;entryX=0;entryY=0.5;entryDx=0;entryDy=0;strokeWidth=3;" edge="1" parent="1" source="DsIkFXhPZ1wWTQOzJaBZ-33" target="DsIkFXhPZ1wWTQOzJaBZ-36">
          <mxGeometry relative="1" as="geometry" />
        </mxCell>
        <mxCell id="Yz1NdHYIqoeAfp1s1f4n-177" style="edgeStyle=orthogonalEdgeStyle;rounded=0;orthogonalLoop=1;jettySize=auto;html=1;exitX=1;exitY=0.5;exitDx=0;exitDy=0;entryX=0;entryY=0.5;entryDx=0;entryDy=0;strokeWidth=3;" edge="1" parent="1" source="DsIkFXhPZ1wWTQOzJaBZ-36" target="DsIkFXhPZ1wWTQOzJaBZ-39">
          <mxGeometry relative="1" as="geometry" />
        </mxCell>
        <mxCell id="Yz1NdHYIqoeAfp1s1f4n-178" style="edgeStyle=orthogonalEdgeStyle;rounded=0;orthogonalLoop=1;jettySize=auto;html=1;exitX=1;exitY=0.5;exitDx=0;exitDy=0;entryX=0;entryY=0.5;entryDx=0;entryDy=0;strokeWidth=3;" edge="1" parent="1" source="DsIkFXhPZ1wWTQOzJaBZ-39" target="DsIkFXhPZ1wWTQOzJaBZ-42">
          <mxGeometry relative="1" as="geometry" />
        </mxCell>
        <mxCell id="Yz1NdHYIqoeAfp1s1f4n-179" style="edgeStyle=orthogonalEdgeStyle;rounded=0;orthogonalLoop=1;jettySize=auto;html=1;exitX=1;exitY=0.5;exitDx=0;exitDy=0;entryX=0;entryY=0.5;entryDx=0;entryDy=0;strokeWidth=3;" edge="1" parent="1" source="DsIkFXhPZ1wWTQOzJaBZ-45" target="DsIkFXhPZ1wWTQOzJaBZ-48">
          <mxGeometry relative="1" as="geometry" />
        </mxCell>
        <mxCell id="Yz1NdHYIqoeAfp1s1f4n-180" style="edgeStyle=orthogonalEdgeStyle;rounded=0;orthogonalLoop=1;jettySize=auto;html=1;exitX=1;exitY=0.5;exitDx=0;exitDy=0;entryX=0;entryY=0.5;entryDx=0;entryDy=0;strokeWidth=3;" edge="1" parent="1" source="DsIkFXhPZ1wWTQOzJaBZ-48" target="DsIkFXhPZ1wWTQOzJaBZ-51">
          <mxGeometry relative="1" as="geometry" />
        </mxCell>
        <mxCell id="Yz1NdHYIqoeAfp1s1f4n-181" style="edgeStyle=orthogonalEdgeStyle;rounded=0;orthogonalLoop=1;jettySize=auto;html=1;exitX=1;exitY=0.5;exitDx=0;exitDy=0;entryX=0;entryY=0.5;entryDx=0;entryDy=0;strokeWidth=3;" edge="1" parent="1" source="DsIkFXhPZ1wWTQOzJaBZ-51" target="DsIkFXhPZ1wWTQOzJaBZ-54">
          <mxGeometry relative="1" as="geometry" />
        </mxCell>
        <mxCell id="Yz1NdHYIqoeAfp1s1f4n-182" style="edgeStyle=orthogonalEdgeStyle;rounded=0;orthogonalLoop=1;jettySize=auto;html=1;exitX=1;exitY=0.5;exitDx=0;exitDy=0;entryX=0;entryY=0.5;entryDx=0;entryDy=0;strokeWidth=3;" edge="1" parent="1" source="DsIkFXhPZ1wWTQOzJaBZ-54" target="DsIkFXhPZ1wWTQOzJaBZ-57">
          <mxGeometry relative="1" as="geometry" />
        </mxCell>
        <mxCell id="Yz1NdHYIqoeAfp1s1f4n-183" style="edgeStyle=orthogonalEdgeStyle;rounded=0;orthogonalLoop=1;jettySize=auto;html=1;exitX=1;exitY=0.5;exitDx=0;exitDy=0;entryX=0;entryY=0.5;entryDx=0;entryDy=0;strokeWidth=3;" edge="1" parent="1" source="DsIkFXhPZ1wWTQOzJaBZ-60" target="DsIkFXhPZ1wWTQOzJaBZ-63">
          <mxGeometry relative="1" as="geometry" />
        </mxCell>
        <mxCell id="Yz1NdHYIqoeAfp1s1f4n-184" style="edgeStyle=orthogonalEdgeStyle;rounded=0;orthogonalLoop=1;jettySize=auto;html=1;exitX=1;exitY=0.5;exitDx=0;exitDy=0;entryX=0;entryY=0.5;entryDx=0;entryDy=0;strokeWidth=3;" edge="1" parent="1" source="DsIkFXhPZ1wWTQOzJaBZ-63" target="DsIkFXhPZ1wWTQOzJaBZ-66">
          <mxGeometry relative="1" as="geometry" />
        </mxCell>
        <mxCell id="Yz1NdHYIqoeAfp1s1f4n-186" style="edgeStyle=orthogonalEdgeStyle;rounded=0;orthogonalLoop=1;jettySize=auto;html=1;exitX=1;exitY=0.5;exitDx=0;exitDy=0;strokeWidth=3;" edge="1" parent="1" source="DsIkFXhPZ1wWTQOzJaBZ-69" target="DsIkFXhPZ1wWTQOzJaBZ-72">
          <mxGeometry relative="1" as="geometry" />
        </mxCell>
        <mxCell id="Yz1NdHYIqoeAfp1s1f4n-192" style="edgeStyle=orthogonalEdgeStyle;rounded=0;orthogonalLoop=1;jettySize=auto;html=1;exitX=0;exitY=0.25;exitDx=0;exitDy=0;entryX=1;entryY=0.5;entryDx=0;entryDy=0;" edge="1" parent="1" source="Yz1NdHYIqoeAfp1s1f4n-189" target="Yz1NdHYIqoeAfp1s1f4n-193">
          <mxGeometry relative="1" as="geometry">
            <mxPoint x="2102" y="84" as="targetPoint" />
          </mxGeometry>
        </mxCell>
        <mxCell id="Yz1NdHYIqoeAfp1s1f4n-189" value="Universe 1 Splits" style="text;html=1;strokeColor=default;fillColor=none;align=center;verticalAlign=middle;whiteSpace=wrap;rounded=0;fontSize=23;" vertex="1" parent="1">
          <mxGeometry x="2212" y="453" width="262" height="92" as="geometry" />
        </mxCell>
        <mxCell id="Yz1NdHYIqoeAfp1s1f4n-190" value="Universe 4&amp;nbsp;Splits" style="text;html=1;strokeColor=default;fillColor=none;align=center;verticalAlign=middle;whiteSpace=wrap;rounded=0;fontSize=23;" vertex="1" parent="1">
          <mxGeometry x="2209" y="598" width="262" height="92" as="geometry" />
        </mxCell>
        <mxCell id="Yz1NdHYIqoeAfp1s1f4n-191" value="Universe 3&amp;nbsp;Splits" style="text;html=1;strokeColor=default;fillColor=none;align=center;verticalAlign=middle;whiteSpace=wrap;rounded=0;fontSize=23;" vertex="1" parent="1">
          <mxGeometry x="2212" y="764" width="262" height="92" as="geometry" />
        </mxCell>
        <mxCell id="Yz1NdHYIqoeAfp1s1f4n-193" value="&lt;font style=&quot;font-size: 23px;&quot;&gt;Provided Foggers (TBD)&lt;/font&gt;" style="text;html=1;strokeColor=none;fillColor=none;align=center;verticalAlign=middle;whiteSpace=wrap;rounded=0;" vertex="1" parent="1">
          <mxGeometry x="1814" y="16" width="160" height="66" as="geometry" />
        </mxCell>
        <mxCell id="Yz1NdHYIqoeAfp1s1f4n-195" style="edgeStyle=orthogonalEdgeStyle;rounded=0;orthogonalLoop=1;jettySize=auto;html=1;exitX=0;exitY=0.25;exitDx=0;exitDy=0;entryX=1;entryY=0.5;entryDx=0;entryDy=0;strokeWidth=3;" edge="1" parent="1" source="Yz1NdHYIqoeAfp1s1f4n-13" target="Yz1NdHYIqoeAfp1s1f4n-17">
          <mxGeometry relative="1" as="geometry">
            <Array as="points">
              <mxPoint x="360" y="147" />
              <mxPoint x="360" y="66" />
              <mxPoint x="1780" y="66" />
              <mxPoint x="1780" y="166" />
            </Array>
          </mxGeometry>
        </mxCell>
        <mxCell id="Yz1NdHYIqoeAfp1s1f4n-197" style="edgeStyle=orthogonalEdgeStyle;rounded=0;orthogonalLoop=1;jettySize=auto;html=1;exitX=1;exitY=0.5;exitDx=0;exitDy=0;entryX=0;entryY=0.5;entryDx=0;entryDy=0;strokeWidth=3;" edge="1" parent="1" source="DsIkFXhPZ1wWTQOzJaBZ-132" target="DsIkFXhPZ1wWTQOzJaBZ-136">
          <mxGeometry relative="1" as="geometry" />
        </mxCell>
        <mxCell id="Yz1NdHYIqoeAfp1s1f4n-199" style="edgeStyle=orthogonalEdgeStyle;rounded=0;orthogonalLoop=1;jettySize=auto;html=1;exitX=1;exitY=0.5;exitDx=0;exitDy=0;entryX=0;entryY=0.5;entryDx=0;entryDy=0;strokeWidth=3;" edge="1" parent="1" source="DsIkFXhPZ1wWTQOzJaBZ-139" target="DsIkFXhPZ1wWTQOzJaBZ-145">
          <mxGeometry relative="1" as="geometry" />
        </mxCell>
        <mxCell id="Yz1NdHYIqoeAfp1s1f4n-204" style="edgeStyle=orthogonalEdgeStyle;rounded=0;orthogonalLoop=1;jettySize=auto;html=1;exitX=1;exitY=0.5;exitDx=0;exitDy=0;entryX=0;entryY=0.5;entryDx=0;entryDy=0;strokeWidth=3;" edge="1" parent="1" source="DsIkFXhPZ1wWTQOzJaBZ-151" target="DsIkFXhPZ1wWTQOzJaBZ-154">
          <mxGeometry relative="1" as="geometry" />
        </mxCell>
        <mxCell id="Yz1NdHYIqoeAfp1s1f4n-207" style="edgeStyle=orthogonalEdgeStyle;rounded=0;orthogonalLoop=1;jettySize=auto;html=1;exitX=1;exitY=0.5;exitDx=0;exitDy=0;entryX=0;entryY=0.5;entryDx=0;entryDy=0;strokeWidth=3;" edge="1" parent="1" source="DsIkFXhPZ1wWTQOzJaBZ-79" target="DsIkFXhPZ1wWTQOzJaBZ-103">
          <mxGeometry relative="1" as="geometry" />
        </mxCell>
        <mxCell id="Yz1NdHYIqoeAfp1s1f4n-208" style="edgeStyle=orthogonalEdgeStyle;rounded=0;orthogonalLoop=1;jettySize=auto;html=1;exitX=1;exitY=0.5;exitDx=0;exitDy=0;entryX=0;entryY=0.5;entryDx=0;entryDy=0;strokeWidth=3;" edge="1" parent="1" source="DsIkFXhPZ1wWTQOzJaBZ-103" target="DsIkFXhPZ1wWTQOzJaBZ-83">
          <mxGeometry relative="1" as="geometry" />
        </mxCell>
        <mxCell id="Yz1NdHYIqoeAfp1s1f4n-209" style="edgeStyle=orthogonalEdgeStyle;rounded=0;orthogonalLoop=1;jettySize=auto;html=1;exitX=1;exitY=0.5;exitDx=0;exitDy=0;entryX=0;entryY=0.5;entryDx=0;entryDy=0;strokeWidth=3;" edge="1" parent="1" source="DsIkFXhPZ1wWTQOzJaBZ-83" target="DsIkFXhPZ1wWTQOzJaBZ-107">
          <mxGeometry relative="1" as="geometry" />
        </mxCell>
        <mxCell id="Yz1NdHYIqoeAfp1s1f4n-210" style="edgeStyle=orthogonalEdgeStyle;rounded=0;orthogonalLoop=1;jettySize=auto;html=1;exitX=1;exitY=0.5;exitDx=0;exitDy=0;strokeWidth=2;" edge="1" parent="1" source="DsIkFXhPZ1wWTQOzJaBZ-107" target="DsIkFXhPZ1wWTQOzJaBZ-110">
          <mxGeometry relative="1" as="geometry" />
        </mxCell>
        <mxCell id="Yz1NdHYIqoeAfp1s1f4n-211" style="edgeStyle=orthogonalEdgeStyle;rounded=0;orthogonalLoop=1;jettySize=auto;html=1;exitX=1;exitY=0.5;exitDx=0;exitDy=0;entryX=0;entryY=0.5;entryDx=0;entryDy=0;strokeWidth=3;" edge="1" parent="1" source="DsIkFXhPZ1wWTQOzJaBZ-110" target="DsIkFXhPZ1wWTQOzJaBZ-86">
          <mxGeometry relative="1" as="geometry" />
        </mxCell>
        <mxCell id="Yz1NdHYIqoeAfp1s1f4n-212" style="edgeStyle=orthogonalEdgeStyle;rounded=0;orthogonalLoop=1;jettySize=auto;html=1;exitX=1;exitY=0.5;exitDx=0;exitDy=0;entryX=0;entryY=0.5;entryDx=0;entryDy=0;strokeWidth=3;" edge="1" parent="1" source="DsIkFXhPZ1wWTQOzJaBZ-86" target="DsIkFXhPZ1wWTQOzJaBZ-113">
          <mxGeometry relative="1" as="geometry" />
        </mxCell>
        <mxCell id="Yz1NdHYIqoeAfp1s1f4n-214" style="edgeStyle=orthogonalEdgeStyle;rounded=0;orthogonalLoop=1;jettySize=auto;html=1;exitX=1;exitY=0.5;exitDx=0;exitDy=0;entryX=0;entryY=0.5;entryDx=0;entryDy=0;strokeWidth=3;" edge="1" parent="1" source="DsIkFXhPZ1wWTQOzJaBZ-116" target="DsIkFXhPZ1wWTQOzJaBZ-89">
          <mxGeometry relative="1" as="geometry" />
        </mxCell>
        <mxCell id="Yz1NdHYIqoeAfp1s1f4n-215" style="edgeStyle=orthogonalEdgeStyle;rounded=0;orthogonalLoop=1;jettySize=auto;html=1;exitX=1;exitY=0.5;exitDx=0;exitDy=0;entryX=0;entryY=0.5;entryDx=0;entryDy=0;strokeWidth=3;" edge="1" parent="1" source="DsIkFXhPZ1wWTQOzJaBZ-89" target="DsIkFXhPZ1wWTQOzJaBZ-123">
          <mxGeometry relative="1" as="geometry" />
        </mxCell>
        <mxCell id="Yz1NdHYIqoeAfp1s1f4n-216" style="edgeStyle=orthogonalEdgeStyle;rounded=0;orthogonalLoop=1;jettySize=auto;html=1;exitX=1;exitY=0.5;exitDx=0;exitDy=0;entryX=0;entryY=0.5;entryDx=0;entryDy=0;strokeWidth=3;" edge="1" parent="1" source="DsIkFXhPZ1wWTQOzJaBZ-123" target="DsIkFXhPZ1wWTQOzJaBZ-120">
          <mxGeometry relative="1" as="geometry" />
        </mxCell>
        <mxCell id="Yz1NdHYIqoeAfp1s1f4n-217" style="edgeStyle=orthogonalEdgeStyle;rounded=0;orthogonalLoop=1;jettySize=auto;html=1;exitX=1;exitY=0.5;exitDx=0;exitDy=0;entryX=0;entryY=0.5;entryDx=0;entryDy=0;strokeWidth=3;" edge="1" parent="1" source="DsIkFXhPZ1wWTQOzJaBZ-120" target="DsIkFXhPZ1wWTQOzJaBZ-92">
          <mxGeometry relative="1" as="geometry" />
        </mxCell>
        <mxCell id="Yz1NdHYIqoeAfp1s1f4n-218" style="edgeStyle=orthogonalEdgeStyle;rounded=0;orthogonalLoop=1;jettySize=auto;html=1;exitX=1;exitY=0.5;exitDx=0;exitDy=0;entryX=0;entryY=0.5;entryDx=0;entryDy=0;strokeWidth=3;" edge="1" parent="1" source="DsIkFXhPZ1wWTQOzJaBZ-92" target="DsIkFXhPZ1wWTQOzJaBZ-130">
          <mxGeometry relative="1" as="geometry" />
        </mxCell>
        <mxCell id="Yz1NdHYIqoeAfp1s1f4n-219" style="edgeStyle=orthogonalEdgeStyle;rounded=0;orthogonalLoop=1;jettySize=auto;html=1;exitX=1;exitY=0.5;exitDx=0;exitDy=0;entryX=0;entryY=0.5;entryDx=0;entryDy=0;strokeWidth=3;" edge="1" parent="1" source="DsIkFXhPZ1wWTQOzJaBZ-130" target="DsIkFXhPZ1wWTQOzJaBZ-98">
          <mxGeometry relative="1" as="geometry" />
        </mxCell>
      </root>
    </mxGraphModel>
  </diagram>
</mxfile>
